<svg width="104" height="133" viewBox="0 0 61 78" fill="none" xmlns="http://www.w3.org/2000/svg">
<g filter="url(#filter0_d_77_2376)">
<path d="M5 0H60.7703V62.9761C60.7703 68.4989 56.2932 72.9761 50.7703 72.9761H15C9.47714 72.9761 5 68.4989 5 62.9761V0Z" fill="#E0FFE9"/>
<path d="M6 1H59.7703V62.9761C59.7703 67.9466 55.7409 71.9761 50.7703 71.9761H15C10.0294 71.9761 6 67.9466 6 62.9761V1Z" stroke="black" stroke-width="2"/>
</g>
<path d="M17.5165 51.0239H15.4933C15.328 51.0239 15.2062 50.9891 15.1279 50.9195C15.0582 50.8412 15.0234 50.7194 15.0234 50.554V42.0959C15.0234 41.9306 15.0582 41.8131 15.1279 41.7435C15.2062 41.6652 15.328 41.626 15.4933 41.626H21.3148C21.4801 41.626 21.5976 41.6652 21.6672 41.7435C21.7455 41.8131 21.7847 41.9306 21.7847 42.0959V43.6492C21.7847 43.8145 21.7455 43.9364 21.6672 44.0147C21.5976 44.0843 21.4801 44.1191 21.3148 44.1191H17.9864V45.4766H20.2575C20.4229 45.4766 20.5404 45.5157 20.61 45.594C20.6883 45.6637 20.7274 45.7811 20.7274 45.9465V47.5128C20.7274 47.6781 20.6883 47.7999 20.61 47.8782C20.5404 47.9479 20.4229 47.9827 20.2575 47.9827H17.9864V50.554C17.9864 50.7194 17.9472 50.8412 17.8689 50.9195C17.7993 50.9891 17.6818 51.0239 17.5165 51.0239Z" fill="#6EBB83"/>
<path d="M31.6155 48.557C31.6155 48.9573 31.5546 49.3227 31.4327 49.6534C31.3196 49.9754 31.1108 50.2538 30.8062 50.4888C30.5104 50.715 30.1014 50.8934 29.5793 51.0239C29.0572 51.1545 28.3915 51.2197 27.5822 51.2197C26.7729 51.2197 26.1073 51.1545 25.5852 51.0239C25.0631 50.8934 24.6497 50.715 24.3452 50.4888C24.0493 50.2538 23.8405 49.9754 23.7186 49.6534C23.6055 49.3227 23.5489 48.9573 23.5489 48.557V42.0959C23.5489 41.9306 23.5838 41.8131 23.6534 41.7435C23.7317 41.6652 23.8535 41.626 24.0188 41.626H26.0681C26.2334 41.626 26.3509 41.6652 26.4205 41.7435C26.4988 41.8131 26.538 41.9306 26.538 42.0959V48.0479C26.538 48.222 26.6033 48.3699 26.7338 48.4917C26.8643 48.6048 27.1558 48.6614 27.6083 48.6614C28.0695 48.6614 28.3654 48.6048 28.4959 48.4917C28.6264 48.3699 28.6917 48.222 28.6917 48.0479V42.0959C28.6917 41.9306 28.7265 41.8131 28.7961 41.7435C28.8744 41.6652 28.9962 41.626 29.1616 41.626H31.1456C31.3109 41.626 31.4284 41.6652 31.498 41.7435C31.5763 41.8131 31.6155 41.9306 31.6155 42.0959V48.557Z" fill="#6EBB83"/>
<path d="M40.9885 51.0239H34.3447C34.1794 51.0239 34.0575 50.9891 33.9792 50.9195C33.9096 50.8412 33.8748 50.7194 33.8748 50.554V42.0959C33.8748 41.9306 33.9096 41.8131 33.9792 41.7435C34.0575 41.6652 34.1794 41.626 34.3447 41.626H36.3679C36.5332 41.626 36.6507 41.6652 36.7203 41.7435C36.7986 41.8131 36.8378 41.9306 36.8378 42.0959V48.557H38.626V46.4425C38.626 46.2771 38.6608 46.1597 38.7304 46.09C38.8087 46.0117 38.9305 45.9726 39.0959 45.9726H40.9885C41.1538 45.9726 41.2713 46.0117 41.3409 46.09C41.4192 46.1597 41.4584 46.2771 41.4584 46.4425V50.554C41.4584 50.7194 41.4192 50.8412 41.3409 50.9195C41.2713 50.9891 41.1538 51.0239 40.9885 51.0239Z" fill="#6EBB83"/>
<path d="M50.5863 51.0239H43.9425C43.7771 51.0239 43.6553 50.9891 43.577 50.9195C43.5074 50.8412 43.4726 50.7194 43.4726 50.554V42.0959C43.4726 41.9306 43.5074 41.8131 43.577 41.7435C43.6553 41.6652 43.7771 41.626 43.9425 41.626H45.9656C46.131 41.626 46.2484 41.6652 46.318 41.7435C46.3964 41.8131 46.4355 41.9306 46.4355 42.0959V48.557H48.2237V46.4425C48.2237 46.2771 48.2585 46.1597 48.3281 46.09C48.4065 46.0117 48.5283 45.9726 48.6936 45.9726H50.5863C50.7516 45.9726 50.8691 46.0117 50.9387 46.09C51.017 46.1597 51.0561 46.2771 51.0561 46.4425V50.554C51.0561 50.7194 51.017 50.8412 50.9387 50.9195C50.8691 50.9891 50.7516 51.0239 50.5863 51.0239Z" fill="#6EBB83"/>
<path d="M20.8062 62.2967H17.4125C17.2471 62.2967 17.1079 62.2662 16.9948 62.2053C16.8904 62.1444 16.8077 62.0313 16.7468 61.8659L15.4676 58.668C15.3893 58.4766 15.3241 58.3113 15.2718 58.172C15.2196 58.0241 15.1761 57.8849 15.1413 57.7543C15.1065 57.6238 15.0804 57.4889 15.063 57.3497C15.0543 57.2018 15.05 57.0234 15.05 56.8146V53.3687C15.05 53.2033 15.0848 53.0859 15.1544 53.0162C15.2327 52.9379 15.3545 52.8988 15.5198 52.8988H17.5952C17.7605 52.8988 17.8867 52.9379 17.9737 53.0162C18.0608 53.0859 18.1043 53.2033 18.1043 53.3687V56.9712C18.1043 57.0582 18.113 57.1452 18.1304 57.2322C18.1478 57.3193 18.1739 57.4106 18.2087 57.5063L18.8222 59.3337C18.8483 59.4207 18.8787 59.4816 18.9135 59.5164C18.9483 59.5426 19.0005 59.5556 19.0702 59.5556H19.2137C19.2834 59.5556 19.3356 59.5426 19.3704 59.5164C19.4052 59.4816 19.4356 59.4207 19.4617 59.3337L20.0752 57.4933C20.11 57.3976 20.1361 57.3062 20.1535 57.2192C20.1709 57.1322 20.1796 57.0451 20.1796 56.9581V53.3687C20.1796 53.2033 20.2144 53.0859 20.2841 53.0162C20.3624 52.9379 20.4842 52.8988 20.6495 52.8988H22.6988C22.8641 52.8988 22.9816 52.9379 23.0512 53.0162C23.1295 53.0859 23.1687 53.2033 23.1687 53.3687V56.8146C23.1687 57.0234 23.16 57.2018 23.1426 57.3497C23.1339 57.4889 23.1121 57.6238 23.0773 57.7543C23.0425 57.8849 22.999 58.0241 22.9468 58.172C22.8946 58.3113 22.8293 58.4766 22.751 58.668L21.4718 61.8659C21.4109 62.0313 21.3239 62.1444 21.2108 62.2053C21.1064 62.2662 20.9715 62.2967 20.8062 62.2967Z" fill="#6EBB83"/>
<path d="M31.3066 62.2967H25.2502C25.0848 62.2967 24.963 62.2619 24.8847 62.1922C24.8151 62.1139 24.7803 61.9921 24.7803 61.8268V53.3687C24.7803 53.2033 24.8151 53.0859 24.8847 53.0162C24.963 52.9379 25.0848 52.8988 25.2502 52.8988H31.3066C31.4719 52.8988 31.5894 52.9379 31.659 53.0162C31.7373 53.0859 31.7765 53.2033 31.7765 53.3687V54.8958C31.7765 55.0611 31.7373 55.183 31.659 55.2613C31.5894 55.3309 31.4719 55.3657 31.3066 55.3657H27.7041V56.3708H30.2493C30.4147 56.3708 30.5321 56.4099 30.6018 56.4882C30.6801 56.5579 30.7192 56.6753 30.7192 56.8407V58.2373C30.7192 58.4026 30.6801 58.5244 30.6018 58.6028C30.5321 58.6724 30.4147 58.7072 30.2493 58.7072H27.7041V59.8297H31.3066C31.4719 59.8297 31.5894 59.8689 31.659 59.9472C31.7373 60.0168 31.7765 60.1343 31.7765 60.2996V61.8268C31.7765 61.9921 31.7373 62.1139 31.659 62.1922C31.5894 62.2619 31.4719 62.2967 31.3066 62.2967Z" fill="#6EBB83"/>
<path d="M40.4358 62.2967H36.3242C35.2365 62.2967 34.4272 62.0791 33.8964 61.644C33.3743 61.2089 33.1133 60.5389 33.1133 59.6339V55.5615C33.1133 54.6565 33.3743 53.9865 33.8964 53.5514C34.4272 53.1163 35.2365 52.8988 36.3242 52.8988H39.5874C39.7527 52.8988 39.8702 52.9379 39.9398 53.0162C40.0181 53.0859 40.0573 53.2033 40.0573 53.3687V54.948C40.0573 55.1134 40.0181 55.2352 39.9398 55.3135C39.8702 55.3831 39.7527 55.4179 39.5874 55.4179H36.8724C36.6027 55.4179 36.4025 55.4745 36.272 55.5876C36.1415 55.692 36.0762 55.853 36.0762 56.0706V59.1901C36.0762 59.4077 36.1241 59.5687 36.2198 59.6731C36.3242 59.7775 36.4765 59.8297 36.6766 59.8297H37.9427V57.7935C37.9427 57.6282 37.9775 57.5107 38.0472 57.4411C38.1255 57.3628 38.2473 57.3236 38.4126 57.3236H40.4358C40.6011 57.3236 40.7186 57.3628 40.7882 57.4411C40.8665 57.5107 40.9057 57.6282 40.9057 57.7935V61.8268C40.9057 61.9921 40.8665 62.1139 40.7882 62.1922C40.7186 62.2619 40.6011 62.2967 40.4358 62.2967Z" fill="#6EBB83"/>
<path d="M44.926 62.2967H42.9681C42.8028 62.2967 42.6809 62.2619 42.6026 62.1922C42.533 62.1139 42.4982 61.9921 42.4982 61.8268V53.3687C42.4982 53.2033 42.533 53.0859 42.6026 53.0162C42.6809 52.9379 42.8028 52.8988 42.9681 52.8988H44.3256C44.4909 52.8988 44.6301 52.9249 44.7433 52.9771C44.8651 53.0293 44.9826 53.1207 45.0957 53.2512L47.6279 56.1489V53.3687C47.6279 53.2033 47.6627 53.0859 47.7323 53.0162C47.8106 52.9379 47.9325 52.8988 48.0978 52.8988H50.0557C50.221 52.8988 50.3385 52.9379 50.4081 53.0162C50.4864 53.0859 50.5256 53.2033 50.5256 53.3687V61.8268C50.5256 61.9921 50.4864 62.1139 50.4081 62.1922C50.3385 62.2619 50.221 62.2967 50.0557 62.2967H48.0978C47.9325 62.2967 47.8106 62.2619 47.7323 62.1922C47.6627 62.1139 47.6279 61.9921 47.6279 61.8268V60.2213L45.3959 57.5194V61.8268C45.3959 61.9921 45.3567 62.1139 45.2784 62.1922C45.2088 62.2619 45.0913 62.2967 44.926 62.2967Z" fill="#6EBB83"/>
<defs>
<filter id="filter0_d_77_2376" x="0" y="0" width="60.7703" height="77.9761" filterUnits="userSpaceOnUse" color-interpolation-filters="sRGB">
<feFlood flood-opacity="0" result="BackgroundImageFix"/>
<feColorMatrix in="SourceAlpha" type="matrix" values="0 0 0 0 0 0 0 0 0 0 0 0 0 0 0 0 0 0 127 0" result="hardAlpha"/>
<feOffset dx="-5" dy="5"/>
<feComposite in2="hardAlpha" operator="out"/>
<feColorMatrix type="matrix" values="0 0 0 0 0.430494 0 0 0 0 0.733333 0 0 0 0 0.515289 0 0 0 1 0"/>
<feBlend mode="normal" in2="BackgroundImageFix" result="effect1_dropShadow_77_2376"/>
<feBlend mode="normal" in="SourceGraphic" in2="effect1_dropShadow_77_2376" result="shape"/>
</filter>
</defs>
</svg>
