<svg width="61" height="78" viewBox="0 0 61 78" fill="none" xmlns="http://www.w3.org/2000/svg">
<g filter="url(#filter0_d_77_2377)">
<path d="M5.22949 0H60.9998V62.9761C60.9998 68.4989 56.5227 72.9761 50.9998 72.9761H15.2295C9.70664 72.9761 5.22949 68.4989 5.22949 62.9761V0Z" fill="#E0FFE9"/>
<path d="M6.22949 1H59.9998V62.9761C59.9998 67.9466 55.9704 71.9761 50.9998 71.9761H15.2295C10.2589 71.9761 6.22949 67.9466 6.22949 62.9761V1Z" stroke="black" stroke-width="2"/>
</g>
<path d="M17.6376 51.0239H15.6144C15.4491 51.0239 15.3273 50.9891 15.249 50.9195C15.1793 50.8412 15.1445 50.7194 15.1445 50.554V42.0959C15.1445 41.9306 15.1793 41.8131 15.249 41.7435C15.3273 41.6652 15.4491 41.626 15.6144 41.626H19.6085C20.792 41.626 21.6012 41.861 22.0363 42.3309C22.4714 42.8008 22.689 43.4142 22.689 44.1713V45.842C22.689 46.5991 22.4714 47.2126 22.0363 47.6825C21.6012 48.1524 20.792 48.3873 19.6085 48.3873H18.1075V50.554C18.1075 50.7194 18.0683 50.8412 17.99 50.9195C17.9204 50.9891 17.8029 51.0239 17.6376 51.0239ZM18.0814 44.0669V46.0378H19.2561C19.5085 46.0378 19.6738 45.9726 19.7521 45.842C19.8304 45.7115 19.8696 45.5636 19.8696 45.3982V44.7065C19.8696 44.5411 19.8304 44.3932 19.7521 44.2627C19.6738 44.1321 19.5085 44.0669 19.2561 44.0669H18.0814Z" fill="#FF3E6C"/>
<path d="M27.8431 44.3671L27.2296 46.3511H29.2789L28.6654 44.3671C28.6306 44.2888 28.5915 44.2322 28.548 44.1974C28.5131 44.1626 28.4696 44.1452 28.4174 44.1452H28.0911C28.0389 44.1452 27.991 44.1626 27.9475 44.1974C27.9127 44.2322 27.8779 44.2888 27.8431 44.3671ZM27.0991 50.554C27.0991 50.7194 27.06 50.8412 26.9816 50.9195C26.912 50.9891 26.7945 51.0239 26.6292 51.0239H24.7105C24.5451 51.0239 24.4233 50.9891 24.345 50.9195C24.2754 50.8412 24.2406 50.7194 24.2406 50.554V47.1081C24.2406 46.8471 24.2797 46.5469 24.3581 46.2075C24.4451 45.8681 24.5756 45.4722 24.7496 45.0197L25.8852 42.0568C25.9374 41.9088 26.0157 41.8001 26.1202 41.7305C26.2333 41.6608 26.3769 41.626 26.5509 41.626H30.0621C30.2274 41.626 30.3623 41.6608 30.4667 41.7305C30.5798 41.8001 30.6625 41.9088 30.7147 42.0568L31.8503 45.0197C32.0243 45.4722 32.1505 45.8681 32.2288 46.2075C32.3158 46.5469 32.3593 46.8471 32.3593 47.1081V50.554C32.3593 50.7194 32.3202 50.8412 32.2418 50.9195C32.1722 50.9891 32.0548 51.0239 31.8894 51.0239H29.9185C29.7444 51.0239 29.6139 50.9891 29.5269 50.9195C29.4486 50.8412 29.4094 50.7194 29.4094 50.554V48.7267H27.0991V50.554Z" fill="#FF3E6C"/>
<path d="M37.4429 43.9755V45.6462H38.4219C38.6481 45.6462 38.8004 45.5897 38.8787 45.4766C38.957 45.3547 38.9962 45.2068 38.9962 45.0328V44.589C38.9962 44.4149 38.957 44.2714 38.8787 44.1582C38.8004 44.0364 38.6481 43.9755 38.4219 43.9755H37.4429ZM36.973 51.0239H34.9629C34.7976 51.0239 34.6758 50.9891 34.5974 50.9195C34.5278 50.8412 34.493 50.7194 34.493 50.554V42.0959C34.493 41.9306 34.5278 41.8131 34.5974 41.7435C34.6758 41.6652 34.7976 41.626 34.9629 41.626H39.3094C40.284 41.626 40.9541 41.8305 41.3195 42.2395C41.6937 42.6398 41.8808 43.1619 41.8808 43.8058V44.4062C41.8808 44.7717 41.8242 45.085 41.7111 45.346C41.6067 45.5984 41.4196 45.7811 41.1499 45.8942C41.6198 45.9465 41.9983 46.1379 42.2854 46.4686C42.5813 46.7992 42.7292 47.2387 42.7292 47.7869V50.554C42.7292 50.7194 42.6901 50.8412 42.6118 50.9195C42.5421 50.9891 42.4247 51.0239 42.2593 51.0239H40.2362C40.0708 51.0239 39.949 50.9891 39.8707 50.9195C39.8011 50.8412 39.7663 50.7194 39.7663 50.554V48.557C39.7663 48.3655 39.7271 48.2263 39.6488 48.1393C39.5792 48.0436 39.453 47.9957 39.2703 47.9957H37.4429V50.554C37.4429 50.7194 37.4038 50.8412 37.3254 50.9195C37.2558 50.9891 37.1384 51.0239 36.973 51.0239Z" fill="#FF3E6C"/>
<path d="M48.7581 51.0239H46.6436C46.4783 51.0239 46.3564 50.9891 46.2781 50.9195C46.2085 50.8412 46.1737 50.7194 46.1737 50.554V44.1452H44.255C44.0896 44.1452 43.9678 44.1104 43.8895 44.0408C43.8199 43.9625 43.7851 43.8406 43.7851 43.6753V42.0959C43.7851 41.9306 43.8199 41.8131 43.8895 41.7435C43.9678 41.6652 44.0896 41.626 44.255 41.626H51.1467C51.3121 41.626 51.4296 41.6652 51.4992 41.7435C51.5775 41.8131 51.6166 41.9306 51.6166 42.0959V43.6753C51.6166 43.8406 51.5775 43.9625 51.4992 44.0408C51.4296 44.1104 51.3121 44.1452 51.1467 44.1452H49.228V50.554C49.228 50.7194 49.1889 50.8412 49.1105 50.9195C49.0409 50.9891 48.9234 51.0239 48.7581 51.0239Z" fill="#FF3E6C"/>
<path d="M21.0356 62.2967H17.6419C17.4766 62.2967 17.3374 62.2662 17.2242 62.2053C17.1198 62.1444 17.0371 62.0313 16.9762 61.8659L15.6971 58.668C15.6188 58.4766 15.5535 58.3113 15.5013 58.172C15.4491 58.0241 15.4056 57.8849 15.3708 57.7543C15.336 57.6238 15.3098 57.4889 15.2924 57.3497C15.2837 57.2018 15.2794 57.0234 15.2794 56.8146V53.3687C15.2794 53.2033 15.3142 53.0859 15.3838 53.0162C15.4621 52.9379 15.584 52.8988 15.7493 52.8988H17.8247C17.99 52.8988 18.1162 52.9379 18.2032 53.0162C18.2902 53.0859 18.3337 53.2033 18.3337 53.3687V56.9712C18.3337 57.0582 18.3424 57.1452 18.3598 57.2322C18.3772 57.3193 18.4033 57.4106 18.4381 57.5063L19.0516 59.3337C19.0777 59.4207 19.1082 59.4816 19.143 59.5164C19.1778 59.5426 19.23 59.5556 19.2996 59.5556H19.4432C19.5128 59.5556 19.565 59.5426 19.5998 59.5164C19.6346 59.4816 19.6651 59.4207 19.6912 59.3337L20.3047 57.4933C20.3395 57.3976 20.3656 57.3062 20.383 57.2192C20.4004 57.1322 20.4091 57.0451 20.4091 56.9581V53.3687C20.4091 53.2033 20.4439 53.0859 20.5135 53.0162C20.5918 52.9379 20.7136 52.8988 20.879 52.8988H22.9282C23.0936 52.8988 23.211 52.9379 23.2807 53.0162C23.359 53.0859 23.3981 53.2033 23.3981 53.3687V56.8146C23.3981 57.0234 23.3894 57.2018 23.372 57.3497C23.3633 57.4889 23.3416 57.6238 23.3068 57.7543C23.272 57.8849 23.2284 58.0241 23.1762 58.172C23.124 58.3113 23.0588 58.4766 22.9804 58.668L21.7013 61.8659C21.6404 62.0313 21.5534 62.1444 21.4402 62.2053C21.3358 62.2662 21.2009 62.2967 21.0356 62.2967Z" fill="#FF3E6C"/>
<path d="M31.536 62.2967H25.4796C25.3143 62.2967 25.1925 62.2619 25.1141 62.1922C25.0445 62.1139 25.0097 61.9921 25.0097 61.8268V53.3687C25.0097 53.2033 25.0445 53.0859 25.1141 53.0162C25.1925 52.9379 25.3143 52.8988 25.4796 52.8988H31.536C31.7014 52.8988 31.8188 52.9379 31.8885 53.0162C31.9668 53.0859 32.0059 53.2033 32.0059 53.3687V54.8958C32.0059 55.0611 31.9668 55.183 31.8885 55.2613C31.8188 55.3309 31.7014 55.3657 31.536 55.3657H27.9335V56.3708H30.4788C30.6441 56.3708 30.7616 56.4099 30.8312 56.4882C30.9095 56.5579 30.9487 56.6753 30.9487 56.8407V58.2373C30.9487 58.4026 30.9095 58.5244 30.8312 58.6028C30.7616 58.6724 30.6441 58.7072 30.4788 58.7072H27.9335V59.8297H31.536C31.7014 59.8297 31.8188 59.8689 31.8885 59.9472C31.9668 60.0168 32.0059 60.1343 32.0059 60.2996V61.8268C32.0059 61.9921 31.9668 62.1139 31.8885 62.1922C31.8188 62.2619 31.7014 62.2967 31.536 62.2967Z" fill="#FF3E6C"/>
<path d="M40.6652 62.2967H36.5536C35.4659 62.2967 34.6567 62.0791 34.1259 61.644C33.6038 61.2089 33.3427 60.5389 33.3427 59.6339V55.5615C33.3427 54.6565 33.6038 53.9865 34.1259 53.5514C34.6567 53.1163 35.4659 52.8988 36.5536 52.8988H39.8168C39.9821 52.8988 40.0996 52.9379 40.1692 53.0162C40.2475 53.0859 40.2867 53.2033 40.2867 53.3687V54.948C40.2867 55.1134 40.2475 55.2352 40.1692 55.3135C40.0996 55.3831 39.9821 55.4179 39.8168 55.4179H37.1019C36.8321 55.4179 36.632 55.4745 36.5014 55.5876C36.3709 55.692 36.3056 55.853 36.3056 56.0706V59.1901C36.3056 59.4077 36.3535 59.5687 36.4492 59.6731C36.5537 59.7775 36.7059 59.8297 36.9061 59.8297H38.1722V57.7935C38.1722 57.6282 38.207 57.5107 38.2766 57.4411C38.3549 57.3628 38.4767 57.3236 38.6421 57.3236H40.6652C40.8306 57.3236 40.948 57.3628 41.0177 57.4411C41.096 57.5107 41.1351 57.6282 41.1351 57.7935V61.8268C41.1351 61.9921 41.096 62.1139 41.0177 62.1922C40.948 62.2619 40.8306 62.2967 40.6652 62.2967Z" fill="#FF3E6C"/>
<path d="M45.1554 62.2967H43.1975C43.0322 62.2967 42.9104 62.2619 42.8321 62.1922C42.7625 62.1139 42.7276 61.9921 42.7276 61.8268V53.3687C42.7276 53.2033 42.7625 53.0859 42.8321 53.0162C42.9104 52.9379 43.0322 52.8988 43.1975 52.8988H44.555C44.7203 52.8988 44.8596 52.9249 44.9727 52.9771C45.0945 53.0293 45.212 53.1207 45.3251 53.2512L47.8573 56.1489V53.3687C47.8573 53.2033 47.8921 53.0859 47.9618 53.0162C48.0401 52.9379 48.1619 52.8988 48.3272 52.8988H50.2851C50.4505 52.8988 50.5679 52.9379 50.6375 53.0162C50.7159 53.0859 50.755 53.2033 50.755 53.3687V61.8268C50.755 61.9921 50.7159 62.1139 50.6375 62.1922C50.5679 62.2619 50.4505 62.2967 50.2851 62.2967H48.3272C48.1619 62.2967 48.0401 62.2619 47.9618 62.1922C47.8921 62.1139 47.8573 61.9921 47.8573 61.8268V60.2213L45.6253 57.5194V61.8268C45.6253 61.9921 45.5862 62.1139 45.5079 62.1922C45.4382 62.2619 45.3208 62.2967 45.1554 62.2967Z" fill="#FF3E6C"/>
<defs>
<filter id="filter0_d_77_2377" x="0.229492" y="0" width="60.7704" height="77.9761" filterUnits="userSpaceOnUse" color-interpolation-filters="sRGB">
<feFlood flood-opacity="0" result="BackgroundImageFix"/>
<feColorMatrix in="SourceAlpha" type="matrix" values="0 0 0 0 0 0 0 0 0 0 0 0 0 0 0 0 0 0 127 0" result="hardAlpha"/>
<feOffset dx="-5" dy="5"/>
<feComposite in2="hardAlpha" operator="out"/>
<feColorMatrix type="matrix" values="0 0 0 0 1 0 0 0 0 0.243137 0 0 0 0 0.423529 0 0 0 1 0"/>
<feBlend mode="normal" in2="BackgroundImageFix" result="effect1_dropShadow_77_2377"/>
<feBlend mode="normal" in="SourceGraphic" in2="effect1_dropShadow_77_2377" result="shape"/>
</filter>
</defs>
</svg>
