<svg width="104" height="133" viewBox="0 0 104 133" fill="none" xmlns="http://www.w3.org/2000/svg">
<g filter="url(#filter0_d_77_2379)">
<path d="M10 0H104V103C104 114.046 95.0457 123 84 123H30C18.9543 123 10 114.046 10 103V0Z" fill="#E0FFE9"/>
<path d="M11.5 1.5H102.5V103C102.5 113.217 94.2173 121.5 84 121.5H30C19.7827 121.5 11.5 113.217 11.5 103V1.5Z" stroke="black" stroke-width="3"/>
</g>
<path d="M30.9137 86H27.5037C27.225 86 27.0197 85.9414 26.8877 85.824C26.7703 85.692 26.7117 85.4867 26.7117 85.208V70.952C26.7117 70.6734 26.7703 70.4754 26.8877 70.358C27.0197 70.226 27.225 70.16 27.5037 70.16H34.2357C36.2303 70.16 37.5943 70.556 38.3277 71.348C39.061 72.14 39.4277 73.174 39.4277 74.45V77.266C39.4277 78.542 39.061 79.576 38.3277 80.368C37.5943 81.16 36.2303 81.556 34.2357 81.556H31.7057V85.208C31.7057 85.4867 31.6397 85.692 31.5077 85.824C31.3903 85.9414 31.1923 86 30.9137 86ZM31.6617 74.274V77.596H33.6417C34.067 77.596 34.3457 77.486 34.4777 77.266C34.6097 77.046 34.6757 76.7967 34.6757 76.518V75.352C34.6757 75.0734 34.6097 74.824 34.4777 74.604C34.3457 74.384 34.067 74.274 33.6417 74.274H31.6617Z" fill="#FF3E6C"/>
<path d="M48.1149 74.78L47.0809 78.124H50.5349L49.5009 74.78C49.4423 74.648 49.3763 74.5527 49.3029 74.494C49.2443 74.4354 49.1709 74.406 49.0829 74.406H48.5329C48.4449 74.406 48.3643 74.4354 48.2909 74.494C48.2323 74.5527 48.1736 74.648 48.1149 74.78ZM46.8609 85.208C46.8609 85.4867 46.7949 85.692 46.6629 85.824C46.5456 85.9414 46.3476 86 46.0689 86H42.8349C42.5563 86 42.3509 85.9414 42.2189 85.824C42.1016 85.692 42.0429 85.4867 42.0429 85.208V79.4C42.0429 78.96 42.1089 78.454 42.2409 77.882C42.3876 77.31 42.6076 76.6427 42.9009 75.88L44.8149 70.886C44.9029 70.6367 45.0349 70.4534 45.2109 70.336C45.4016 70.2187 45.6436 70.16 45.9369 70.16H51.8549C52.1336 70.16 52.3609 70.2187 52.5369 70.336C52.7276 70.4534 52.8669 70.6367 52.9549 70.886L54.8689 75.88C55.1623 76.6427 55.3749 77.31 55.5069 77.882C55.6536 78.454 55.7269 78.96 55.7269 79.4V85.208C55.7269 85.4867 55.6609 85.692 55.5289 85.824C55.4116 85.9414 55.2136 86 54.9349 86H51.6129C51.3196 86 51.0996 85.9414 50.9529 85.824C50.8209 85.692 50.7549 85.4867 50.7549 85.208V82.128H46.8609V85.208Z" fill="#FF3E6C"/>
<path d="M64.2952 74.12V76.936H65.9452C66.3266 76.936 66.5832 76.8407 66.7152 76.65C66.8472 76.4447 66.9132 76.1954 66.9132 75.902V75.154C66.9132 74.8607 66.8472 74.6187 66.7152 74.428C66.5832 74.2227 66.3266 74.12 65.9452 74.12H64.2952ZM63.5032 86H60.1152C59.8366 86 59.6312 85.9414 59.4992 85.824C59.3819 85.692 59.3232 85.4867 59.3232 85.208V70.952C59.3232 70.6734 59.3819 70.4754 59.4992 70.358C59.6312 70.226 59.8366 70.16 60.1152 70.16H67.4412C69.0839 70.16 70.2132 70.5047 70.8292 71.194C71.4599 71.8687 71.7752 72.7487 71.7752 73.834V74.846C71.7752 75.462 71.6799 75.99 71.4892 76.43C71.3132 76.8554 70.9979 77.1634 70.5432 77.354C71.3352 77.442 71.9732 77.7647 72.4572 78.322C72.9559 78.8794 73.2052 79.62 73.2052 80.544V85.208C73.2052 85.4867 73.1392 85.692 73.0072 85.824C72.8899 85.9414 72.6919 86 72.4132 86H69.0032C68.7246 86 68.5192 85.9414 68.3872 85.824C68.2699 85.692 68.2112 85.4867 68.2112 85.208V81.842C68.2112 81.5194 68.1452 81.2847 68.0132 81.138C67.8959 80.9767 67.6832 80.896 67.3752 80.896H64.2952V85.208C64.2952 85.4867 64.2292 85.692 64.0972 85.824C63.9799 85.9414 63.7819 86 63.5032 86Z" fill="#FF3E6C"/>
<path d="M83.3668 86H79.8028C79.5242 86 79.3188 85.9414 79.1868 85.824C79.0695 85.692 79.0108 85.4867 79.0108 85.208V74.406H75.7768C75.4982 74.406 75.2928 74.3474 75.1608 74.23C75.0435 74.098 74.9848 73.8927 74.9848 73.614V70.952C74.9848 70.6734 75.0435 70.4754 75.1608 70.358C75.2928 70.226 75.4982 70.16 75.7768 70.16H87.3928C87.6715 70.16 87.8695 70.226 87.9868 70.358C88.1188 70.4754 88.1848 70.6734 88.1848 70.952V73.614C88.1848 73.8927 88.1188 74.098 87.9868 74.23C87.8695 74.3474 87.6715 74.406 87.3928 74.406H84.1588V85.208C84.1588 85.4867 84.0928 85.692 83.9608 85.824C83.8435 85.9414 83.6455 86 83.3668 86Z" fill="#FF3E6C"/>
<path d="M36.641 105H30.921C30.6423 105 30.4076 104.949 30.217 104.846C30.041 104.743 29.9016 104.553 29.799 104.274L27.643 98.884C27.511 98.5614 27.401 98.2827 27.313 98.048C27.225 97.7987 27.1516 97.564 27.093 97.344C27.0343 97.124 26.9903 96.8967 26.961 96.662C26.9463 96.4127 26.939 96.112 26.939 95.76V89.952C26.939 89.6734 26.9976 89.4754 27.115 89.358C27.247 89.226 27.4523 89.16 27.731 89.16H31.229C31.5076 89.16 31.7203 89.226 31.867 89.358C32.0136 89.4754 32.087 89.6734 32.087 89.952V96.024C32.087 96.1707 32.1016 96.3174 32.131 96.464C32.1603 96.6107 32.2043 96.7647 32.263 96.926L33.297 100.006C33.341 100.153 33.3923 100.255 33.451 100.314C33.5096 100.358 33.5976 100.38 33.715 100.38H33.957C34.0743 100.38 34.1623 100.358 34.221 100.314C34.2796 100.255 34.331 100.153 34.375 100.006L35.409 96.904C35.4676 96.7427 35.5116 96.5887 35.541 96.442C35.5703 96.2954 35.585 96.1487 35.585 96.002V89.952C35.585 89.6734 35.6436 89.4754 35.761 89.358C35.893 89.226 36.0983 89.16 36.377 89.16H39.831C40.1096 89.16 40.3076 89.226 40.425 89.358C40.557 89.4754 40.623 89.6734 40.623 89.952V95.76C40.623 96.112 40.6083 96.4127 40.579 96.662C40.5643 96.8967 40.5276 97.124 40.469 97.344C40.4103 97.564 40.337 97.7987 40.249 98.048C40.161 98.2827 40.051 98.5614 39.919 98.884L37.763 104.274C37.6603 104.553 37.5136 104.743 37.323 104.846C37.147 104.949 36.9196 105 36.641 105Z" fill="#FF3E6C"/>
<path d="M54.3393 105H44.1313C43.8526 105 43.6473 104.941 43.5153 104.824C43.398 104.692 43.3393 104.487 43.3393 104.208V89.952C43.3393 89.6734 43.398 89.4754 43.5153 89.358C43.6473 89.226 43.8526 89.16 44.1313 89.16H54.3393C54.618 89.16 54.816 89.226 54.9333 89.358C55.0653 89.4754 55.1313 89.6734 55.1313 89.952V92.526C55.1313 92.8047 55.0653 93.01 54.9333 93.142C54.816 93.2594 54.618 93.318 54.3393 93.318H48.2673V95.012H52.5573C52.836 95.012 53.034 95.078 53.1513 95.21C53.2833 95.3274 53.3493 95.5254 53.3493 95.804V98.158C53.3493 98.4367 53.2833 98.642 53.1513 98.774C53.034 98.8914 52.836 98.95 52.5573 98.95H48.2673V100.842H54.3393C54.618 100.842 54.816 100.908 54.9333 101.04C55.0653 101.157 55.1313 101.355 55.1313 101.634V104.208C55.1313 104.487 55.0653 104.692 54.9333 104.824C54.816 104.941 54.618 105 54.3393 105Z" fill="#FF3E6C"/>
<path d="M69.7264 105H62.7964C60.9631 105 59.5991 104.633 58.7044 103.9C57.8244 103.167 57.3844 102.037 57.3844 100.512V93.648C57.3844 92.1227 57.8244 90.9934 58.7044 90.26C59.5991 89.5267 60.9631 89.16 62.7964 89.16H68.2964C68.5751 89.16 68.7731 89.226 68.8904 89.358C69.0224 89.4754 69.0884 89.6734 69.0884 89.952V92.614C69.0884 92.8927 69.0224 93.098 68.8904 93.23C68.7731 93.3474 68.5751 93.406 68.2964 93.406H63.7204C63.2657 93.406 62.9284 93.5014 62.7084 93.692C62.4884 93.868 62.3784 94.1394 62.3784 94.506V99.764C62.3784 100.131 62.4591 100.402 62.6204 100.578C62.7964 100.754 63.0531 100.842 63.3904 100.842H65.5244V97.41C65.5244 97.1314 65.5831 96.9334 65.7004 96.816C65.8324 96.684 66.0377 96.618 66.3164 96.618H69.7264C70.0051 96.618 70.2031 96.684 70.3204 96.816C70.4524 96.9334 70.5184 97.1314 70.5184 97.41V104.208C70.5184 104.487 70.4524 104.692 70.3204 104.824C70.2031 104.941 70.0051 105 69.7264 105Z" fill="#FF3E6C"/>
<path d="M77.2946 105H73.9946C73.7159 105 73.5106 104.941 73.3786 104.824C73.2612 104.692 73.2026 104.487 73.2026 104.208V89.952C73.2026 89.6734 73.2612 89.4754 73.3786 89.358C73.5106 89.226 73.7159 89.16 73.9946 89.16H76.2826C76.5612 89.16 76.7959 89.204 76.9866 89.292C77.1919 89.38 77.3899 89.534 77.5806 89.754L81.8486 94.638V89.952C81.8486 89.6734 81.9072 89.4754 82.0246 89.358C82.1566 89.226 82.3619 89.16 82.6406 89.16H85.9406C86.2192 89.16 86.4172 89.226 86.5346 89.358C86.6666 89.4754 86.7326 89.6734 86.7326 89.952V104.208C86.7326 104.487 86.6666 104.692 86.5346 104.824C86.4172 104.941 86.2192 105 85.9406 105H82.6406C82.3619 105 82.1566 104.941 82.0246 104.824C81.9072 104.692 81.8486 104.487 81.8486 104.208V101.502L78.0866 96.948V104.208C78.0866 104.487 78.0206 104.692 77.8886 104.824C77.7712 104.941 77.5732 105 77.2946 105Z" fill="#FF3E6C"/>
<defs>
<filter id="filter0_d_77_2379" x="0" y="0" width="104" height="133" filterUnits="userSpaceOnUse" color-interpolation-filters="sRGB">
<feFlood flood-opacity="0" result="BackgroundImageFix"/>
<feColorMatrix in="SourceAlpha" type="matrix" values="0 0 0 0 0 0 0 0 0 0 0 0 0 0 0 0 0 0 127 0" result="hardAlpha"/>
<feOffset dx="-10" dy="10"/>
<feComposite in2="hardAlpha" operator="out"/>
<feColorMatrix type="matrix" values="0 0 0 0 1 0 0 0 0 0.243137 0 0 0 0 0.423529 0 0 0 1 0"/>
<feBlend mode="normal" in2="BackgroundImageFix" result="effect1_dropShadow_77_2379"/>
<feBlend mode="normal" in="SourceGraphic" in2="effect1_dropShadow_77_2379" result="shape"/>
</filter>
</defs>
</svg>
