<svg viewBox="0 0 20 19" xmlns="http://www.w3.org/2000/svg">
<path d="M16.156 0.00486042C15.8498 0.00486042 15.5727 0.165254 15.4172 0.432575C15.2616 0.699897 15.2665 1.02068 15.4172 1.28314C15.5679 1.54561 15.8498 1.71086 16.156 1.71086C16.608 1.71086 17.0406 1.89069 17.3613 2.20662C17.6821 2.52741 17.8571 2.95998 17.8571 3.412V13.1863C17.8571 13.6383 17.6773 14.0708 17.3613 14.3916C17.0406 14.7124 16.608 14.8874 16.156 14.8874H3.40228C2.95026 14.8874 2.51769 14.7076 2.1969 14.3916C1.87611 14.0708 1.70114 13.6383 1.70114 13.1863V3.40714C1.70114 2.95512 1.88097 2.52255 2.1969 2.20176C2.51769 1.88097 2.95026 1.706 3.40228 1.706H11.5094C11.8156 1.706 12.0927 1.54561 12.2482 1.27828C12.4037 1.01096 12.3989 0.690176 12.2482 0.427715C12.0975 0.165253 11.8156 0 11.5094 0H3.40228C2.49824 0 1.63309 0.359669 0.996381 0.996381C0.354809 1.63795 0 2.5031 0 3.40714V13.1863C0 14.0903 0.359669 14.9554 0.996381 15.5922C1.63309 16.2289 2.49824 16.5885 3.40228 16.5885H16.1608C17.0649 16.5885 17.93 16.2289 18.5667 15.5922C19.2034 14.9554 19.5631 14.0903 19.5631 13.1863V3.40714C19.5631 2.5031 19.2034 1.63795 18.5667 1.00124C17.9251 0.359669 17.06 0.00486042 16.156 0.00486042Z" fill="#FF3E6C"/>
<path d="M3.8738 4.3988C3.62106 4.22869 3.29542 4.20925 3.02323 4.34534C2.75105 4.48143 2.57122 4.74875 2.55178 5.05495C2.53233 5.3563 2.67815 5.64792 2.93089 5.81804L9.30773 10.0709H9.34175C9.38549 10.1 9.4341 10.1195 9.48756 10.1389L9.55561 10.1632C9.62851 10.1875 9.70628 10.207 9.77919 10.2118C9.85209 10.2118 9.92014 10.2021 9.99304 10.1827L10.0611 10.1584C10.1097 10.1389 10.1583 10.1146 10.2069 10.0855H10.2409L16.6178 5.83262C16.8705 5.6625 17.0163 5.37088 16.9969 5.06954C16.9774 4.76819 16.7976 4.49601 16.5254 4.35992C16.2532 4.22383 15.9276 4.24813 15.6748 4.41338L9.77919 8.34058L3.8738 4.3988Z" fill="#FF3E6C"/>
</svg>
