<svg viewBox="0 0 27 27" fill="none" xmlns="http://www.w3.org/2000/svg">
<path d="M19.4517 15.58C19.2192 15.9637 19.289 16.5334 19.6029 16.8473L25.4628 22.7073C26.2302 23.4746 26.2302 24.7071 25.4628 25.4745C24.6955 26.2418 23.463 26.2418 22.6956 25.4745L16.8357 19.6145C16.5218 19.3006 15.9521 19.2308 15.5684 19.4634C15.5684 19.4634 15.4288 19.568 14.9754 19.7889C13.6034 20.4633 12.0571 20.8353 10.4177 20.8353C4.66237 20.8353 0 16.173 0 10.4177C0 4.66237 4.66237 0 10.4177 0C16.173 0 20.8353 4.66237 20.8353 10.4177C20.8353 12.0571 20.4517 13.6151 19.7773 14.987C19.5564 15.4405 19.4517 15.58 19.4517 15.58ZM10.406 16.9287C13.9987 16.9287 16.9171 14.0104 16.9171 10.4177C16.9171 6.82497 13.9987 3.90663 10.406 3.90663C6.81334 3.90663 3.895 6.82497 3.895 10.4177C3.895 14.0104 6.81334 16.9287 10.406 16.9287Z" fill="#FF3E6C"/>
</svg>
