<svg width="19" height="19" viewBox="0 0 19 19" fill="none" xmlns="http://www.w3.org/2000/svg">
<path d="M15.7874 10.5179C15.3111 9.98812 14.6403 9.68191 13.9307 9.66733C13.2259 9.67705 12.5503 9.97353 12.0692 10.4887L10.7957 11.7622C10.5819 11.976 10.4944 12.2919 10.577 12.5836C10.6548 12.8752 10.8832 13.1085 11.1797 13.1863C11.4713 13.264 11.7873 13.1814 12.0011 12.9675L13.2745 11.6941C13.4301 11.49 13.6682 11.3733 13.9258 11.3733C14.1834 11.3733 14.4216 11.4948 14.5771 11.6941L16.706 13.823C16.915 13.9834 17.0414 14.2361 17.0414 14.4986C17.0414 14.761 16.9198 15.0138 16.706 15.1742C16.5553 15.3346 16.3901 15.4949 16.2297 15.6456L16.1859 15.6894C15.938 15.9227 15.7047 16.1657 15.486 16.4233C15.0972 16.851 14.5431 17.0892 13.9647 17.06H13.7752C12.7059 16.9482 11.6706 16.6371 10.718 16.1462C8.5065 15.0721 6.54776 13.5362 4.97785 11.6455C3.77733 10.2603 2.82955 8.68067 2.17826 6.96981C1.85747 6.19215 1.71166 5.3513 1.75055 4.50559C1.77971 4.04385 1.97898 3.61127 2.30949 3.29049L3.61694 1.98304C3.77733 1.77891 4.02521 1.6574 4.28767 1.6574C4.55013 1.6574 4.79802 1.77891 4.95841 1.98304C5.18685 2.1969 5.42015 2.43506 5.67289 2.6878L6.01797 3.03775L7.07754 4.09731C7.27196 4.26743 7.39347 4.50559 7.41291 4.76319C7.38861 5.02079 7.27196 5.26381 7.07754 5.43392L6.74703 5.76929C6.46027 6.06091 6.15407 6.36712 5.843 6.65388C5.71177 6.77053 5.61942 6.93093 5.58054 7.1059C5.54166 7.28087 5.5611 7.46071 5.62914 7.62596C5.93535 8.33072 6.3339 8.99659 6.81508 9.59442C7.14073 9.99784 7.48095 10.3769 7.82118 10.7269C7.97671 10.9019 8.19543 11.0039 8.42873 11.0137C8.66203 11.0234 8.88561 10.9359 9.05572 10.7706C9.22098 10.6102 9.31332 10.3867 9.31332 10.1534C9.30846 9.92007 9.21126 9.70135 9.04114 9.54096C8.7398 9.22989 8.43359 8.88967 8.14197 8.53486C7.88437 8.21407 7.64621 7.87384 7.43721 7.51903C7.61705 7.34406 7.78716 7.16909 7.95241 7.00383L8.26834 6.68305C8.79326 6.19701 9.09947 5.52141 9.11891 4.80693C9.10433 4.09245 8.79326 3.41686 8.26834 2.93082L7.21363 1.87611L6.85882 1.51644C6.6158 1.2637 6.36306 1.0061 6.1249 0.787384C5.63886 0.286763 4.96327 0 4.26337 0C3.56347 0.00972079 2.89274 0.296484 2.40184 0.801966L1.07981 2.12399C0.45768 2.72668 0.0785693 3.53837 0.0105238 4.39866C-0.047801 5.49225 0.136894 6.58098 0.550028 7.59194C1.27423 9.47777 2.32407 11.2275 3.65582 12.7488C5.38612 14.8291 7.53928 16.5108 9.96948 17.6918C11.1165 18.28 12.3657 18.6493 13.6537 18.7709H13.9501C15.0097 18.7952 16.0304 18.3529 16.74 17.5655L16.7886 17.512C16.9685 17.303 17.1629 17.1037 17.3621 16.919L17.401 16.8802C17.576 16.7149 17.7558 16.5399 17.9259 16.3601C18.446 15.8789 18.7376 15.2033 18.7376 14.4937C18.7376 13.7841 18.4412 13.1085 17.9259 12.6273L15.7874 10.5179Z" fill="#FF3E6C"/>
</svg>
