<svg width="83" height="83" viewBox="0 0 83 83" fill="none" xmlns="http://www.w3.org/2000/svg">
<g filter="url(#filter0_d_57_11316)">
<path d="M3 40C3.00001 17.9086 20.9086 -5.4282e-06 43 -3.49691e-06C65.0914 -1.56562e-06 83 17.9086 83 40C83 62.0914 65.0914 80 43 80C20.9086 80 3 62.0914 3 40Z" fill="white"/>
<path d="M4 40C4.00001 18.4609 21.4609 0.999995 43 0.999997C64.5391 0.999998 82 18.4609 82 40C82 61.5391 64.5391 79 43 79C21.4609 79 4 61.5391 4 40Z" stroke="black" stroke-width="2"/>
</g>
<path fill-rule="evenodd" clip-rule="evenodd" d="M39.7134 53.8699L25.8599 41.387C25.0097 40.621 25.0097 39.379 25.8599 38.613L39.7134 26.1301C40.5635 25.3641 41.9418 25.3641 42.7919 26.1301C43.6421 26.8961 43.6421 28.138 42.7919 28.9041L32.6546 38.0385L60.7778 38.0385L60.7778 41.9615L32.6546 41.9615L42.7919 51.0959C43.6421 51.862 43.6421 53.1039 42.7919 53.8699C41.9418 54.6359 40.5635 54.6359 39.7134 53.8699Z" fill="black"/>
<defs>
<filter id="filter0_d_57_11316" x="0" y="0" width="83" height="83" filterUnits="userSpaceOnUse" color-interpolation-filters="sRGB">
<feFlood flood-opacity="0" result="BackgroundImageFix"/>
<feColorMatrix in="SourceAlpha" type="matrix" values="0 0 0 0 0 0 0 0 0 0 0 0 0 0 0 0 0 0 127 0" result="hardAlpha"/>
<feOffset dx="-3" dy="3"/>
<feComposite in2="hardAlpha" operator="out"/>
<feColorMatrix type="matrix" values="0 0 0 0 0 0 0 0 0 0 0 0 0 0 0 0 0 0 1 0"/>
<feBlend mode="normal" in2="BackgroundImageFix" result="effect1_dropShadow_57_11316"/>
<feBlend mode="normal" in="SourceGraphic" in2="effect1_dropShadow_57_11316" result="shape"/>
</filter>
</defs>
</svg>
