<svg width="43" height="41" viewBox="0 0 43 41" fill="none" xmlns="http://www.w3.org/2000/svg">
<path d="M16.4401 12.4911L21.5 2.26364L26.5599 12.4911L26.5656 12.5026L26.5714 12.5141C27.107 13.5624 28.1537 14.3925 29.4473 14.5738C29.4503 14.5742 29.4533 14.5747 29.4563 14.5751L40.7879 16.2249L32.5518 24.1986L32.5406 24.2094L32.5296 24.2204C31.6347 25.1142 31.2596 26.3742 31.4602 27.5541L31.4609 27.5583L33.4033 38.8359L23.2727 33.5304L23.2628 33.5253L23.2529 33.5202C22.1657 32.9662 20.8504 32.9744 19.7721 33.5129L19.7548 33.5215L19.7377 33.5304L9.60682 38.8361L11.5393 27.5673L11.5449 27.5352L11.5493 27.5029C11.7011 26.404 11.4248 25.1094 10.4276 24.1891L2.21177 16.235L13.5537 14.5737C14.9011 14.3845 15.8439 13.5265 16.377 12.6086L16.4105 12.5509L16.4401 12.4911Z" stroke="#FFBB56" stroke-width="4"/>
</svg>
