<svg width="20" height="19" viewBox="0 0 20 19" fill="none" xmlns="http://www.w3.org/2000/svg">
<path d="M17.0264 9.86165C16.8029 9.86165 16.5841 9.94914 16.4238 10.1095C16.2634 10.2699 16.1759 10.4838 16.1759 10.7122V16.0246C16.1759 16.3551 16.0446 16.6662 15.8162 16.8995C15.5829 17.1328 15.2718 17.264 14.9413 17.264H8.06873V12.3259C8.06873 12.0585 8.17566 11.8009 8.36521 11.6114C8.55477 11.4218 8.81237 11.3149 9.07969 11.3149H10.3288C10.5961 11.3149 10.8537 11.4218 11.0433 11.6114C11.2328 11.8009 11.3398 12.0585 11.3398 12.3259V14.8776C11.3398 15.1789 11.5002 15.4608 11.7675 15.6164C12.03 15.767 12.3556 15.767 12.6181 15.6164C12.8805 15.4657 13.0458 15.1838 13.0458 14.8776V12.3259C13.0458 11.6065 12.759 10.9164 12.2487 10.4109C11.7383 9.90053 11.0482 9.61377 10.3337 9.61377H9.08455C8.36521 9.61377 7.67504 9.90053 7.16955 10.4109C6.65921 10.9212 6.37245 11.6065 6.37245 12.3259V17.264H4.48176C4.15125 17.264 3.83532 17.1328 3.60202 16.8995C3.36872 16.6662 3.23749 16.3503 3.23749 16.0198V10.7122C3.23749 10.406 3.0771 10.129 2.80978 9.97344C2.54246 9.81791 2.22167 9.82277 1.95921 9.97344C1.69675 10.1241 1.53149 10.406 1.53149 10.7122V16.0246C1.53149 16.8072 1.84256 17.5508 2.39664 18.1049C2.95073 18.659 3.69437 18.9652 4.47689 18.97H14.9365C15.719 18.97 16.4626 18.659 17.0167 18.1049C17.5708 17.5557 17.877 16.8072 17.8819 16.0246V10.7122C17.8819 10.4838 17.7895 10.2699 17.6291 10.1095C17.4687 9.94914 17.2549 9.86165 17.0264 9.86165Z" fill="#FF3E6C"/>
<path d="M19.2379 8.2967L11.8355 0.870011C11.2766 0.311065 10.5183 0 9.73096 0C8.94357 0 8.18535 0.315926 7.62641 0.870011L0.175418 8.2967C0.00530411 8.52028 -0.0432998 8.80704 0.0393269 9.0695C0.121954 9.33196 0.330951 9.54096 0.598273 9.62359C0.865594 9.70621 1.15236 9.65275 1.37108 9.48263L8.80262 2.07539C9.04078 1.83723 9.36643 1.70114 9.70666 1.70114C10.0469 1.70114 10.3725 1.83723 10.6107 2.07539L18.0374 9.48263C18.2512 9.69649 18.5672 9.78398 18.8588 9.70135C19.1504 9.62359 19.3837 9.39515 19.4615 9.09866C19.5392 8.80704 19.4566 8.49111 19.2428 8.27726L19.2379 8.2967Z" fill="#FF3E6C"/>
</svg>
