<svg width="59" height="59" viewBox="0 0 59 59" fill="none" xmlns="http://www.w3.org/2000/svg">
<g filter="url(#filter0_d_57_9927)">
<path d="M59 28C59 43.464 46.464 56 31 56C15.536 56 3 43.464 3 28C3 12.536 15.536 0 31 0C46.464 0 59 12.536 59 28Z" fill="white"/>
<path d="M58 28C58 42.9117 45.9117 55 31 55C16.0883 55 4 42.9117 4 28C4 13.0883 16.0883 1 31 1C45.9117 1 58 13.0883 58 28Z" stroke="black" stroke-width="2"/>
</g>
<path fill-rule="evenodd" clip-rule="evenodd" d="M33.3007 18.291L42.9981 27.0291C43.5932 27.5653 43.5932 28.4347 42.9981 28.9709L33.3007 37.7089C32.7056 38.2452 31.7407 38.2452 31.1457 37.7089C30.5506 37.1727 30.5506 36.3034 31.1457 35.7672L38.2418 29.373L18.5555 29.373V26.6269L38.2418 26.6269L31.1457 20.2328C30.5506 19.6966 30.5506 18.8273 31.1457 18.291C31.7407 17.7548 32.7056 17.7548 33.3007 18.291Z" fill="black"/>
<defs>
<filter id="filter0_d_57_9927" x="0" y="0" width="59" height="59" filterUnits="userSpaceOnUse" color-interpolation-filters="sRGB">
<feFlood flood-opacity="0" result="BackgroundImageFix"/>
<feColorMatrix in="SourceAlpha" type="matrix" values="0 0 0 0 0 0 0 0 0 0 0 0 0 0 0 0 0 0 127 0" result="hardAlpha"/>
<feOffset dx="-3" dy="3"/>
<feComposite in2="hardAlpha" operator="out"/>
<feColorMatrix type="matrix" values="0 0 0 0 0 0 0 0 0 0 0 0 0 0 0 0 0 0 1 0"/>
<feBlend mode="normal" in2="BackgroundImageFix" result="effect1_dropShadow_57_9927"/>
<feBlend mode="normal" in="SourceGraphic" in2="effect1_dropShadow_57_9927" result="shape"/>
</filter>
</defs>
</svg>
