<svg width="20" height="20" viewBox="0 0 20 20" fill="none" xmlns="http://www.w3.org/2000/svg">
<path d="M9.7803 0C7.74865 0 5.76561 0.631852 4.10822 1.81293C2.45082 2.98914 1.20656 4.65626 0.540684 6.57612C-0.12519 8.49597 -0.178654 10.5762 0.394872 12.5252C0.963539 14.4743 2.13003 16.1997 3.72424 17.4585C3.9624 17.6481 4.28319 17.6918 4.56509 17.5801C4.847 17.4683 5.04627 17.2155 5.09002 16.9142C5.13376 16.6128 5.01225 16.3115 4.77409 16.1219C3.77771 15.3394 2.9806 14.3285 2.4411 13.1765H5.76561C5.94545 14.518 6.30998 15.8255 6.85434 17.0649C7.82156 19.1305 8.97347 19.5582 9.77058 19.5582C12.366 19.5582 14.8546 18.5278 16.6869 16.6955C18.5193 14.8631 19.5497 12.3746 19.5497 9.77912C19.5497 7.18367 18.529 4.69514 16.6966 2.86277C14.8643 1.0304 12.3758 0 9.7803 0ZM17.1001 6.37684H13.8047C13.6249 4.91872 13.1923 3.50435 12.5313 2.1969C14.5435 2.93082 16.1912 4.43268 17.1001 6.37684ZM17.8631 9.77912C17.8631 10.3526 17.8 10.9213 17.6784 11.4803H13.9748C14.0088 10.9359 14.0331 10.3721 14.0331 9.77912C14.0331 9.18615 14.0088 8.62234 13.9748 8.07798H17.4354C17.5132 8.07798 17.5958 8.0634 17.6687 8.0391C17.7951 8.61262 17.8583 9.19587 17.8631 9.77912ZM7.29178 11.4803C7.24803 10.9213 7.22859 10.3575 7.22859 9.77912C7.22859 9.20073 7.24803 8.61748 7.29178 8.07798H12.2688C12.3126 8.61748 12.332 9.18615 12.332 9.77912C12.332 10.3721 12.3126 10.9408 12.2688 11.4803H7.29178ZM9.7803 1.70114C10.5531 1.70114 11.5932 3.45088 12.0695 6.37684H7.49591C7.96737 3.44602 9.0075 1.70114 9.7803 1.70114ZM7.01473 2.1969C6.35372 3.50435 5.92114 4.91872 5.74131 6.37684H2.46054C3.36944 4.43754 5.00739 2.93568 7.01473 2.1969ZM1.69746 9.77912C1.69746 9.19587 1.76064 8.61262 1.88701 8.0391C1.96478 8.0634 2.04255 8.07798 2.12031 8.07798H5.58092C5.54689 8.62234 5.52259 9.18615 5.52259 9.77912C5.52259 10.3721 5.52259 10.9213 5.58092 11.4803H1.88215C1.76064 10.9213 1.70232 10.3526 1.69746 9.77912ZM7.49591 13.1814H12.0695C11.5932 16.1122 10.558 17.8571 9.7803 17.8571C9.35258 17.8571 8.84224 17.2787 8.39995 16.3455C7.96251 15.3346 7.65631 14.2701 7.49591 13.1814ZM12.5459 17.3613C13.2069 16.0539 13.6395 14.6395 13.8193 13.1814H17.1146C16.2057 15.1256 14.5629 16.6274 12.5459 17.3613Z" fill="#FF3E6C"/>
</svg>
