<svg viewBox="0 0 196 239" fill="none" xmlns="http://www.w3.org/2000/svg">
<path d="M145.327 97.9889C145.327 85.6272 140.425 73.7451 131.686 65.0067C122.948 56.2683 111.066 51.3662 98.7042 51.3662C86.3426 51.3662 74.4604 56.2683 65.722 65.0067C56.9836 73.7451 52.0815 85.6272 52.0815 97.9889C52.0815 110.351 56.9836 122.233 65.722 130.971C74.4604 139.71 86.3426 144.612 98.7042 144.612C111.066 144.612 122.948 139.71 131.686 130.971C140.425 122.233 145.327 110.351 145.327 97.9889ZM98.7042 125.963C91.2979 125.963 84.1579 123.032 78.9362 117.757C73.7145 112.535 70.7306 105.395 70.7306 97.9889C70.7306 90.5825 73.6612 83.4426 78.9362 78.2209C84.1579 72.9991 91.2979 70.0153 98.7042 70.0153C106.111 70.0153 113.251 72.9459 118.472 78.2209C123.694 83.4426 126.678 90.5825 126.678 97.9889C126.678 105.395 123.747 112.535 118.472 117.757C113.251 123.032 106.111 125.963 98.7042 125.963Z" fill="#FF3E6C"/>
<path d="M94.4417 0.0550396C75.5795 0.694436 57.3034 6.82199 41.798 17.6385C26.2926 28.4549 14.3039 43.534 7.16401 61.0109C0.0773643 78.541 -1.78754 97.7229 1.72914 116.265C1.94227 117.438 2.1554 118.61 2.4751 119.782C3.96703 126.389 6.15163 132.783 8.97563 138.964C18.7797 162.249 40.3594 198.108 87.0886 236.845C89.6462 238.976 93.1629 239.562 96.3066 238.443C99.4503 237.271 101.688 234.554 102.274 231.25C102.86 227.947 101.582 224.643 99.024 222.512C55.1721 186.013 35.1909 152.871 26.0795 131.238C23.735 126.123 21.9234 120.794 20.6446 115.306C20.3782 114.241 20.2716 113.601 20.1651 113.068C15.7426 90.3166 21.4972 66.8187 35.9369 48.6492C50.3233 30.533 71.9562 19.6099 95.1343 18.7574C116.661 18.0114 137.548 26.0039 153 40.9232C168.505 55.8957 177.244 76.463 177.19 97.9893C177.19 103.051 176.711 108.113 175.752 113.122C175.752 113.122 175.752 114.081 175.219 115.573C173.993 121.061 172.182 126.442 169.784 131.504C158.435 156.761 142.396 179.672 122.575 199.067C120.231 201.465 119.378 204.928 120.284 208.125C121.19 211.322 123.747 213.827 126.998 214.626C130.248 215.425 133.658 214.466 135.949 212.068C157.262 191.181 174.526 166.458 186.781 139.177C189.712 132.943 191.896 126.442 193.388 119.729C193.868 117.757 194.028 116.585 194.028 116.585C195.2 110.458 195.786 104.17 195.786 97.936C195.786 80.3526 191.044 63.0889 182.092 47.9565C173.141 32.8241 160.246 20.4092 144.794 11.9904C129.449 3.57172 112.025 -0.531074 94.4417 0.0550396Z" fill="#FF3E6C"/>
</svg>
