<svg width="450" height="53" viewBox="0 0 588 70" fill="none" xmlns="http://www.w3.org/2000/svg">
<path d="M15.6943 70C14.4459 70 13.3758 69.7325 12.6624 69.2866C11.8599 68.8408 11.2357 67.949 10.7898 66.7898L2.67516 46.5478C2.14013 45.2994 1.78344 44.2293 1.42675 43.2484C1.07006 42.3567 0.802548 41.465 0.535032 40.5732C0.356688 39.6815 0.178344 38.7898 0.0891723 37.8089C3.38835e-07 36.828 0 35.6688 0 34.4204V12.7516C0 12.0382 0.0891721 11.414 0.267516 10.9682C0.44586 10.4331 0.713376 10.0764 1.15924 9.71975L11.6815 0.713376C11.949 0.535032 12.3057 0.356688 12.7516 0.178344C13.1975 -1.7274e-07 13.7325 0 14.2675 0H27.3758C28.7134 0 29.6943 0.356688 30.4076 0.980892C31.121 1.6051 31.4777 2.58599 31.4777 3.8344V26.5732C31.4777 27.1083 31.5669 27.6433 31.656 28.1783C31.7452 28.7134 31.9236 29.1592 32.1019 29.7834L32.3694 30.3185V12.7516C32.3694 12.0382 32.4586 11.414 32.6369 10.9682C32.8153 10.4331 33.0828 10.0764 33.5287 9.71975L44.1401 0.713376C44.4076 0.535032 44.7643 0.356688 45.2102 0.178344C45.656 -1.7274e-07 46.1911 0 46.7261 0H59.656C60.9936 0 61.9745 0.267516 62.5987 0.89172C63.1338 1.51592 63.4904 2.49682 63.4904 3.74522V25.5032C63.4904 26.8408 63.4904 28 63.4013 28.8917C63.3121 29.8726 63.1338 30.7643 62.9554 31.6561C62.7771 32.5478 62.4204 33.3503 62.0637 34.3312C61.707 35.2229 61.2611 36.293 60.8153 37.6306L52.7006 57.7834C52.5223 58.3185 52.3439 58.6752 52.0764 59.121C51.8089 59.4777 51.5414 59.8344 51.2739 60.0127L40.6624 68.8408C40.2166 69.1975 39.6815 69.5541 39.1465 69.7325C38.6115 69.9108 37.8981 70 37.1847 70H15.6943ZM47.707 60.1911C48.7771 60.1911 49.5796 60.0127 50.293 59.6561C51.0064 59.2994 51.5414 58.586 51.8981 57.5159L60.0127 37.2739C60.5478 36.0255 60.9045 35.0446 61.2611 34.0637C61.6178 33.172 61.8853 32.2803 62.0637 31.4777C62.242 30.6752 62.4204 29.7834 62.5095 28.8917C62.5987 28 62.5987 26.8408 62.5987 25.5924V3.74522C62.5987 2.67516 62.3312 1.96178 61.8853 1.51592C61.4395 1.07006 60.6369 0.802548 59.656 0.802548H46.7261C45.6561 0.802548 44.9427 1.07006 44.4968 1.51592C44.051 1.96178 43.7834 2.76433 43.7834 3.74522V26.3949C43.7834 26.9299 43.6943 27.465 43.6051 28C43.5159 28.535 43.3376 29.1592 43.0701 29.6943L39.2357 41.2866C39.0573 41.8217 38.879 42.1783 38.7006 42.3567C38.5223 42.535 38.1656 42.6242 37.7197 42.6242H36.828C36.3822 42.6242 36.0255 42.535 35.8471 42.3567C35.6688 42.1783 35.4013 41.8217 35.3121 41.2866L31.4777 29.7834C31.2994 29.1592 31.121 28.6242 30.9427 28.0892C30.8535 27.5541 30.7643 27.0191 30.7643 26.4841V3.74522C30.7643 2.67516 30.4968 1.96178 29.9618 1.51592C29.4267 1.07006 28.6242 0.802548 27.5541 0.802548H14.3567C13.2866 0.802548 12.5732 1.07006 12.1274 1.51592C11.6815 1.96178 11.414 2.76433 11.414 3.74522V25.5032C11.414 26.8408 11.414 27.9108 11.5032 28.8025C11.5924 29.6943 11.7707 30.586 11.949 31.3885C12.1274 32.1911 12.4841 33.0828 12.7516 33.9745C13.1083 34.8662 13.465 35.9363 14 37.1847L22.1146 57.4268C22.4713 58.4968 23.0064 59.2102 23.7197 59.5669C24.4331 59.9236 25.2357 60.1019 26.3057 60.1019H47.707V60.1911ZM20.6879 8.20382H21.4904V26.0382C21.4904 27.465 21.5796 28.8025 21.8471 30.1401C22.0255 31.3885 22.3822 32.6369 22.828 33.707L28.2675 46.9045C28.8025 48.3312 29.4268 49.4904 30.1401 50.4713C30.8535 51.4522 31.9236 51.8981 33.4395 51.8981H40.6624C42.1783 51.8981 43.3376 51.4522 43.9618 50.4713C44.6752 49.4904 45.2994 48.3312 45.8344 46.9045L51.3631 33.707C51.8089 32.6369 52.1656 31.3885 52.3439 30.1401C52.5223 28.8917 52.7006 27.465 52.7006 26.0382V8.20382H53.5032V26.0382C53.5032 27.5541 53.414 28.9809 53.2357 30.3185C53.0573 31.5669 52.7006 32.9045 52.1656 34.0637L46.7261 47.2611C46.1019 48.8662 45.2994 50.2038 44.4968 51.1847C43.6943 52.2548 42.4459 52.7898 40.6624 52.7898H33.4395C31.7452 52.7898 30.4968 52.2548 29.6051 51.1847C28.8025 50.1146 28 48.7771 27.3758 47.2611L21.9363 34.0637C21.4013 32.8153 21.1338 31.5669 20.8662 30.3185C20.6879 29.0701 20.5987 27.6433 20.5987 26.0382V8.20382H20.6879Z" fill="black"/>
<path d="M111.643 70H73.3885C72.051 70 71.0701 69.7325 70.535 69.1083C69.9108 68.4841 69.6433 67.5032 69.6433 66.2548V12.7516C69.6433 12.0382 69.7325 11.414 69.9108 10.9682C70.0892 10.4331 70.3567 10.0764 70.8025 9.71975L81.414 0.713376C81.6815 0.535032 82.0382 0.356688 82.4841 0.178344C82.9299 -1.7274e-07 83.465 0 84 0H122.255C123.592 0 124.573 0.267516 125.108 0.89172C125.732 1.51592 126 2.49682 126 3.74522V13.3758C126 14.0892 125.911 14.7134 125.732 15.1592C125.554 15.6943 125.287 16.051 124.841 16.4076L117.707 22.293C118.242 22.5605 118.688 23.0064 118.866 23.5414C119.134 24.0764 119.223 24.7898 119.223 25.6815V34.5096C119.223 35.2229 119.134 35.8471 118.955 36.293C118.777 36.828 118.51 37.1847 118.064 37.5414L110.752 43.6943H122.166C123.503 43.6943 124.484 43.9618 125.019 44.586C125.643 45.2102 125.911 46.1911 125.911 47.4395V57.0701C125.911 57.7834 125.822 58.4076 125.643 58.8535C125.465 59.3885 125.197 59.7452 124.752 60.1019L114.051 69.0191C113.873 69.1975 113.516 69.465 112.981 69.5541C112.713 69.9108 112.178 70 111.643 70ZM122.344 60.1911C123.414 60.1911 124.127 59.9236 124.573 59.4777C125.019 59.0319 125.287 58.2293 125.287 57.2484V47.5287C125.287 46.4586 125.019 45.7452 124.573 45.2994C124.127 44.8535 123.325 44.586 122.344 44.586H99.5159V37.4522H115.567C116.637 37.4522 117.35 37.1847 117.796 36.7389C118.242 36.293 118.51 35.4904 118.51 34.5096V25.6815C118.51 24.6115 118.242 23.8981 117.796 23.4522C117.35 23.0064 116.548 22.7389 115.567 22.7389H99.5159V16.4076H122.255C123.325 16.4076 124.038 16.1401 124.484 15.6943C124.93 15.2484 125.197 14.4459 125.197 13.465V3.74522C125.197 2.67516 124.93 1.96178 124.484 1.51592C124.038 1.07006 123.236 0.802548 122.255 0.802548H84C82.9299 0.802548 82.2166 1.07006 81.7707 1.51592C81.3248 1.96178 81.0573 2.76433 81.0573 3.74522V57.1592C81.0573 58.2293 81.3248 58.9427 81.7707 59.3885C82.2166 59.8344 83.0191 60.1019 84 60.1019H122.344V60.1911ZM117.885 51.8981V52.7006H90.0637V8.20382H117.885V9.00637H90.9554V29.6943H111.287V30.4968H90.9554V51.8981H117.885Z" fill="black"/>
<path d="M177.541 70H151.592C144.369 70 139.108 68.1274 135.63 64.3822C132.153 60.6369 130.458 55.8217 130.458 49.8471V26.5732C130.458 23.5414 130.904 20.9554 131.796 18.7261C132.688 16.4968 133.936 14.7134 135.63 13.1975L146.331 4.28025C148.025 2.8535 150.255 1.78344 152.93 1.07006C155.605 0.356688 158.726 0 162.293 0H182.892C184.229 0 185.21 0.267516 185.745 0.89172C186.369 1.51592 186.637 2.49682 186.637 3.74522V13.7325C186.637 14.4459 186.548 15.0701 186.369 15.5159C186.191 16.051 185.923 16.4076 185.478 16.7643L174.777 25.6815C174.599 25.8599 174.242 26.1274 173.707 26.2166C173.261 26.3949 172.726 26.4841 172.191 26.4841H161.49V38.3439C161.58 38.2548 161.669 38.0764 161.758 37.9873C161.936 37.8089 162.025 37.7197 162.115 37.6306L172.726 28.6242C172.994 28.4459 173.35 28.2675 173.796 28.0892C174.242 27.9108 174.777 27.9108 175.312 27.9108H188.064C189.401 27.9108 190.382 28.1783 190.917 28.8025C191.541 29.4268 191.809 30.4076 191.809 31.6561V57.1592C191.809 57.8726 191.72 58.4968 191.541 58.9427C191.363 59.4777 191.095 59.8344 190.65 60.1911L179.949 69.1083C179.771 69.2866 179.414 69.5541 178.879 69.6433C178.611 69.9108 178.076 70 177.541 70ZM188.242 60.1911C189.312 60.1911 190.025 59.9236 190.471 59.4777C190.917 59.0319 191.185 58.2293 191.185 57.2484V31.7452C191.185 30.6752 190.917 29.9618 190.471 29.5159C190.025 29.0701 189.223 28.8025 188.242 28.8025H175.49C174.42 28.8025 173.707 29.0701 173.261 29.5159C172.815 29.9618 172.548 30.7643 172.548 31.7452V44.586H164.522C163.274 44.586 162.293 44.2293 161.669 43.6051C161.044 42.9809 160.688 41.9108 160.688 40.5732V20.8662C160.688 19.5287 161.134 18.4586 161.936 17.7452C162.739 17.0318 163.987 16.6752 165.771 16.6752H182.892C183.962 16.6752 184.675 16.4076 185.121 15.9618C185.567 15.5159 185.834 14.7134 185.834 13.7325V3.74522C185.834 2.67516 185.567 1.96178 185.121 1.51592C184.675 1.07006 183.873 0.802548 182.892 0.802548H162.293C155.427 0.802548 150.344 2.14013 146.955 4.90446C143.656 7.66879 141.962 11.8599 141.962 17.5669V43.3376C141.962 49.0446 143.656 53.3248 146.955 56C150.255 58.7643 155.337 60.1019 162.293 60.1019H188.242V60.1911ZM165.771 52.7006C162.739 52.7006 160.242 52.5223 158.369 52.1656C156.408 51.8089 154.892 51.1847 153.822 50.293C152.751 49.4013 151.949 48.3312 151.592 46.9936C151.146 45.6561 150.968 44.051 150.968 42.0892V18.9936C150.968 15.0701 151.86 12.3057 153.643 10.7006C155.427 9.09554 158.904 8.20382 164.166 8.20382H178.433V9.00637H164.166C159.35 9.00637 156.051 9.71974 154.357 11.2357C152.662 12.7516 151.771 15.3376 151.771 18.9045V42C151.771 45.5669 152.751 48.0637 154.624 49.5796C156.497 51.0955 160.242 51.8089 165.771 51.8089H181.376V36.2038H182.178V52.7898H165.771V52.7006Z" fill="black"/>
<path d="M215.261 69.1975C215.083 69.3758 214.726 69.6433 214.191 69.7325C213.745 69.9108 213.21 70 212.675 70H200.548C199.21 70 198.229 69.7325 197.694 69.1083C197.07 68.4841 196.803 67.5032 196.803 66.2548V44.4076C196.803 42.7134 197.07 40.7516 197.605 38.6115C198.14 36.4713 198.943 33.8854 200.102 30.9427L207.236 12.3057C207.414 11.7707 207.593 11.414 207.86 11.0573C208.128 10.7006 208.395 10.3439 208.663 10.0764L208.752 9.98726L219.274 1.15924C219.72 0.802548 220.255 0.44586 220.879 0.267516C221.503 0.0891721 222.128 0 222.93 0H245.134C246.382 0 247.452 0.267516 248.255 0.802548C249.057 1.33758 249.682 2.14013 250.038 3.21019L257.172 21.9363C258.331 24.879 259.134 27.465 259.669 29.6051C260.204 31.7452 260.472 33.707 260.472 35.4013V57.1592C260.472 57.8726 260.382 58.4968 260.204 58.9427C260.026 59.4777 259.758 59.8344 259.312 60.1911L248.612 69.1083C248.433 69.2866 248.077 69.5541 247.542 69.6433C247.096 69.8217 246.561 69.9108 246.026 69.9108H233.542C232.204 69.9108 231.134 69.5541 230.51 68.9299C229.886 68.3057 229.529 67.3248 229.529 66.0764V55.3758H227.21V57.0701C227.21 57.7834 227.121 58.4076 226.943 58.8535C226.765 59.3885 226.497 59.7452 226.051 60.1019L215.261 69.1975ZM226.319 57.1592V45.6561H240.943V57.1592C240.943 58.2293 241.21 58.9427 241.745 59.3885C242.28 59.8344 243.083 60.1019 244.153 60.1019H256.637C257.707 60.1019 258.421 59.8344 258.866 59.3885C259.312 58.9427 259.58 58.1401 259.58 57.1592V35.4013C259.58 33.7962 259.312 31.8344 258.777 29.6943C258.242 27.5541 257.44 25.0573 256.37 22.2038L249.236 3.47771C248.879 2.58599 248.433 1.87261 247.72 1.42675C247.007 0.980892 246.204 0.802548 245.134 0.802548H222.93C221.86 0.802548 220.968 0.980892 220.255 1.42675C219.542 1.87261 219.096 2.58599 218.739 3.47771L211.605 22.2038C210.535 25.0573 209.733 27.5541 209.198 29.6943C208.663 31.8344 208.395 33.707 208.395 35.4013V57.1592C208.395 58.2293 208.663 58.9427 209.108 59.3885C209.554 59.8344 210.357 60.1019 211.338 60.1019H223.465C224.535 60.1019 225.249 59.8344 225.694 59.3885C226.051 59.0319 226.319 58.2293 226.319 57.1592ZM249.949 52.7006V38.5223H217.758V52.7006H216.956V35.1338C216.956 33.6178 217.045 32.1911 217.312 30.8535C217.58 29.6051 217.936 28.2675 218.382 27.1083L223.644 13.5541C224.268 12.0382 224.892 10.7006 225.694 9.71975C226.497 8.64968 227.745 8.11465 229.618 8.11465H237.733C239.516 8.11465 240.854 8.64968 241.567 9.71975C242.28 10.7898 242.994 12.1274 243.707 13.6433L249.414 27.1083C249.86 28.3567 250.217 29.6051 250.484 30.8535C250.752 32.1019 250.841 33.5287 250.841 35.1338V52.7006H249.949ZM217.847 35.1338V37.7197H250.038V35.1338C250.038 33.6178 249.949 32.2803 249.682 31.0318C249.414 29.7834 249.147 28.6242 248.701 27.465L242.994 14.0892C242.37 12.6624 241.745 11.5032 241.121 10.5223C240.497 9.5414 239.338 9.09554 237.822 9.09554H229.707C228.013 9.09554 226.943 9.5414 226.229 10.5223C225.605 11.5032 224.981 12.6624 224.446 14L219.096 27.465C218.739 28.535 218.382 29.7834 218.115 31.0318C217.936 32.2803 217.847 33.707 217.847 35.1338ZM231.045 18.1019C231.223 17.5669 231.491 17.2102 231.758 17.0318C232.026 16.8535 232.293 16.6752 232.65 16.6752H234.701C235.058 16.6752 235.325 16.7643 235.593 17.0318C235.86 17.2102 236.038 17.5669 236.306 18.1019L240.14 30.6752H227.21L231.045 18.1019Z" fill="black"/>
<path d="M295.872 60.2803L285.172 69.1975C284.993 69.3758 284.637 69.6433 284.102 69.7325C283.656 69.9108 283.121 70 282.586 70H270.191C268.853 70 267.872 69.7325 267.337 69.1083C266.713 68.4841 266.446 67.5032 266.446 66.2548V12.7516C266.446 12.0382 266.535 11.414 266.713 10.9682C266.891 10.4331 267.159 10.0764 267.605 9.71975L278.216 0.713376C278.484 0.535032 278.84 0.356688 279.286 0.178344C279.732 -1.7274e-07 280.267 0 280.802 0H289.363C290.611 0 291.592 0.178344 292.395 0.535032C293.197 0.89172 294.089 1.51592 294.891 2.40764L300.598 9.00637L310.586 0.713376C310.853 0.535032 311.21 0.356688 311.656 0.178344C312.102 -1.7274e-07 312.637 0 313.172 0H325.567C326.904 0 327.885 0.267516 328.42 0.89172C329.044 1.51592 329.312 2.49682 329.312 3.74522V57.1592C329.312 57.8726 329.223 58.4968 329.044 58.9427C328.866 59.4777 328.598 59.8344 328.153 60.1911L317.452 69.1083C317.274 69.2866 316.917 69.5541 316.382 69.6433C315.936 69.8217 315.401 69.9108 314.866 69.9108H302.471C301.133 69.9108 300.153 69.6433 299.618 69.0191C298.993 68.3949 298.726 67.414 298.726 66.1656V56.3567L296.942 54.1274V57.1592C296.942 57.8726 296.853 58.4968 296.675 58.9427C296.586 59.4777 296.318 59.9236 295.872 60.2803ZM293.286 60.1911C294.356 60.1911 295.07 59.9236 295.516 59.4777C295.961 59.0319 296.229 58.2293 296.229 57.2484V29.9618L310.318 47.0828V57.2484C310.318 58.3185 310.586 59.0319 311.032 59.4777C311.477 59.9236 312.28 60.1911 313.261 60.1911H325.656C326.726 60.1911 327.439 59.9236 327.885 59.4777C328.331 59.0319 328.598 58.2293 328.598 57.2484V3.74522C328.598 2.67516 328.331 1.96178 327.885 1.51592C327.439 1.07006 326.637 0.802548 325.656 0.802548H313.261C312.191 0.802548 311.477 1.07006 311.032 1.51592C310.586 1.96178 310.318 2.76433 310.318 3.74522V21.3121L294.356 3.03185C293.643 2.2293 292.93 1.6051 292.127 1.33758C291.414 0.980892 290.522 0.802548 289.452 0.802548H280.891C279.821 0.802548 279.108 1.07006 278.662 1.51592C278.216 1.96178 277.949 2.76433 277.949 3.74522V57.1592C277.949 58.2293 278.216 58.9427 278.662 59.3885C279.108 59.8344 279.911 60.1019 280.891 60.1019H293.286V60.1911ZM288.828 8.82803L319.146 42.9809V8.20382H319.949V52.7006H319.146V44.2293L287.936 9.27389C287.847 9.18471 287.847 9.18471 287.758 9.09554C287.668 9.00637 287.579 9.00637 287.579 9.00637C287.49 9.00637 287.49 9.00637 287.49 9.09554C287.49 9.18471 287.49 9.18471 287.49 9.27389V52.7006H286.688V9.09554C286.688 8.73885 286.777 8.56051 287.044 8.38217C287.223 8.20382 287.49 8.11465 287.668 8.11465C287.847 8.11465 288.114 8.20382 288.204 8.29299C288.293 8.38217 288.56 8.56051 288.828 8.82803Z" fill="black"/>
<path d="M353.388 70H340.637C339.299 70 338.318 69.7325 337.783 69.1083C337.159 68.4841 336.892 67.5032 336.892 66.2548V12.7516C336.892 12.0382 336.981 11.414 337.159 10.9682C337.337 10.4331 337.605 10.0764 338.051 9.71975L348.573 0.713376C348.841 0.535032 349.197 0.356688 349.643 0.178344C350.089 -1.7274e-07 350.624 0 351.159 0H387.987C389.325 0 390.306 0.267516 390.841 0.89172C391.465 1.51592 391.732 2.49682 391.732 3.74522V13.5541C391.732 14.2675 391.643 14.8917 391.465 15.3376C391.286 15.8726 391.019 16.2293 390.573 16.586L381.299 24.2548C382.548 24.2548 383.529 24.5223 384.064 25.1465C384.688 25.7707 384.955 26.7516 384.955 28V37.8981C384.955 38.6115 384.866 39.2357 384.688 39.6815C384.509 40.2166 384.242 40.5732 383.796 40.9299L373.095 49.8471C372.917 50.0255 372.56 50.293 372.025 50.3822C371.579 50.5605 371.044 50.6497 370.509 50.6497H367.656V57.0701C367.656 57.7834 367.567 58.4076 367.388 58.8535C367.21 59.3885 366.943 59.7452 366.497 60.1019L355.796 69.0191C355.618 69.1975 355.261 69.465 354.726 69.5541C354.458 69.9108 353.923 70 353.388 70ZM364 60.1911C365.07 60.1911 365.783 59.9236 366.229 59.4777C366.675 59.0319 366.943 58.2293 366.943 57.2484V40.9299H381.299C382.369 40.9299 383.083 40.6624 383.529 40.2166C383.974 39.7707 384.242 38.9682 384.242 37.9873V28.0892C384.242 27.0191 383.974 26.3057 383.529 25.8599C383.083 25.414 382.28 25.1465 381.299 25.1465H367.032V16.586H388.076C389.146 16.586 389.86 16.3185 390.306 15.8726C390.751 15.4268 391.019 14.6242 391.019 13.6433V3.8344C391.019 2.76433 390.751 2.05096 390.306 1.6051C389.86 1.15924 389.057 0.89172 388.076 0.89172H351.248C350.178 0.89172 349.465 1.15924 349.019 1.6051C348.573 2.05096 348.306 2.8535 348.306 3.8344V57.2484C348.306 58.3185 348.573 59.0319 349.019 59.4777C349.465 59.9236 350.267 60.1911 351.248 60.1911H364ZM357.312 52.7006V8.20382H383.618V9.00637H358.115V32.6369H376.93V33.4395H358.115V52.7006H357.312Z" fill="black"/>
<path d="M433.643 70H398.509C397.172 70 396.191 69.7325 395.656 69.1083C395.032 68.4841 394.764 67.5032 394.764 66.2548V56.4459C394.764 55.7325 394.853 55.1083 395.032 54.6624C395.21 54.1274 395.478 53.7707 395.923 53.414L405.911 45.0318V26.4841H398.599C397.261 26.4841 396.28 26.2166 395.745 25.5924C395.121 24.9682 394.853 23.9873 394.853 22.7389V12.7516C394.853 12.0382 394.942 11.414 395.121 10.9682C395.299 10.4331 395.567 10.0764 396.013 9.71975L406.535 0.713376C406.802 0.535032 407.159 0.356688 407.605 0.178344C408.051 -1.7274e-07 408.586 0 409.121 0H444.255C445.592 0 446.573 0.267516 447.108 0.89172C447.732 1.51592 448 2.49682 448 3.74522V13.7325C448 14.4459 447.911 15.0701 447.732 15.5159C447.554 16.051 447.286 16.4076 446.841 16.7643L437.032 24.9682V43.5159H444.165C445.503 43.5159 446.484 43.7834 447.019 44.4076C447.643 45.0318 447.911 46.0127 447.911 47.2611V57.0701C447.911 57.7834 447.822 58.4076 447.643 58.8535C447.465 59.3885 447.197 59.7452 446.751 60.1019L436.051 69.0191C435.872 69.1975 435.516 69.465 434.981 69.5541C434.713 69.9108 434.178 70 433.643 70ZM409.121 60.1911H444.255C445.325 60.1911 446.038 59.9236 446.484 59.4777C446.93 59.0319 447.197 58.2293 447.197 57.2484V47.4395C447.197 46.3694 446.93 45.6561 446.484 45.2102C446.038 44.7643 445.235 44.4968 444.255 44.4968H436.229V16.6752H444.255C445.325 16.6752 446.038 16.4076 446.484 15.9618C446.93 15.5159 447.197 14.7134 447.197 13.7325V3.74522C447.197 2.67516 446.93 1.96178 446.484 1.51592C446.038 1.07006 445.235 0.802548 444.255 0.802548H409.121C408.051 0.802548 407.337 1.07006 406.892 1.51592C406.446 1.96178 406.178 2.76433 406.178 3.74522V13.7325C406.178 14.8025 406.446 15.5159 406.892 15.9618C407.337 16.4076 408.14 16.6752 409.121 16.6752H417.325V44.4076H409.121C408.051 44.4076 407.337 44.6752 406.892 45.121C406.446 45.5669 406.178 46.3694 406.178 47.3503V57.1592C406.178 58.2293 406.446 58.9427 406.892 59.3885C407.337 59.9236 408.14 60.1911 409.121 60.1911ZM439.796 52.7006H413.579V51.8981H426.331V9.00637H413.579V8.20382H439.796V9.00637H427.134V51.8981H439.796V52.7006Z" fill="black"/>
<path d="M483.58 60.2803L472.879 69.1975C472.701 69.3758 472.344 69.6433 471.809 69.7325C471.363 69.9108 470.828 70 470.293 70H457.987C456.65 70 455.669 69.7325 455.134 69.1083C454.51 68.4841 454.242 67.5032 454.242 66.2548V12.7516C454.242 12.0382 454.331 11.414 454.51 10.9682C454.688 10.4331 454.956 10.0764 455.401 9.71975L466.013 0.713376C466.28 0.535032 466.637 0.356688 467.083 0.178344C467.529 -1.7274e-07 468.064 0 468.599 0H477.159C478.408 0 479.389 0.178344 480.191 0.535032C480.994 0.89172 481.886 1.51592 482.688 2.40764L488.395 9.00637L498.382 0.713376C498.65 0.535032 499.007 0.356688 499.452 0.178344C499.898 -1.7274e-07 500.433 0 500.968 0H513.363C514.701 0 515.682 0.267516 516.217 0.89172C516.841 1.51592 517.108 2.49682 517.108 3.74522V57.1592C517.108 57.8726 517.019 58.4968 516.841 58.9427C516.663 59.4777 516.395 59.8344 515.949 60.1911L505.249 69.1083C505.07 69.2866 504.714 69.5541 504.178 69.6433C503.733 69.8217 503.198 69.9108 502.663 69.9108H490.268C488.93 69.9108 487.949 69.6433 487.414 69.0191C486.79 68.3949 486.522 67.414 486.522 66.1656V56.3567L484.739 54.1274V57.1592C484.739 57.8726 484.65 58.4968 484.472 58.9427C484.293 59.4777 484.026 59.9236 483.58 60.2803ZM480.994 60.1911C482.064 60.1911 482.777 59.9236 483.223 59.4777C483.669 59.0319 483.936 58.2293 483.936 57.2484V29.9618L498.026 47.0828V57.2484C498.026 58.3185 498.293 59.0319 498.739 59.4777C499.185 59.9236 499.987 60.1911 500.968 60.1911H513.363C514.433 60.1911 515.147 59.9236 515.592 59.4777C516.038 59.0319 516.306 58.2293 516.306 57.2484V3.74522C516.306 2.67516 516.038 1.96178 515.592 1.51592C515.147 1.07006 514.344 0.802548 513.363 0.802548H500.968C499.898 0.802548 499.185 1.07006 498.739 1.51592C498.293 1.96178 498.026 2.76433 498.026 3.74522V21.3121L482.064 3.03185C481.35 2.2293 480.637 1.6051 479.835 1.33758C479.121 0.980892 478.229 0.802548 477.159 0.802548H468.599C467.529 0.802548 466.815 1.07006 466.37 1.51592C465.924 1.96178 465.656 2.76433 465.656 3.74522V57.1592C465.656 58.2293 465.924 58.9427 466.37 59.3885C466.815 59.8344 467.618 60.1019 468.599 60.1019H480.994V60.1911ZM476.535 8.82803L506.854 42.9809V8.20382H507.656V52.7006H506.854V44.2293L475.643 9.27389C475.554 9.18471 475.554 9.18471 475.465 9.09554C475.376 9.00637 475.287 9.00637 475.287 9.00637C475.198 9.00637 475.198 9.00637 475.198 9.09554C475.198 9.18471 475.198 9.18471 475.198 9.27389V52.7006H474.395V9.09554C474.395 8.73885 474.484 8.56051 474.752 8.38217C474.93 8.20382 475.198 8.11465 475.376 8.11465C475.554 8.11465 475.822 8.20382 475.911 8.29299C476 8.38217 476.268 8.56051 476.535 8.82803Z" fill="black"/>
<path d="M571.949 65.6306C570.255 67.0573 568.114 68.1274 565.439 68.9299C562.764 69.7325 559.732 70 556.076 70H528.255C526.917 70 525.936 69.7325 525.401 69.1083C524.777 68.4841 524.509 67.5032 524.509 66.2548V12.7516C524.509 12.0382 524.598 11.414 524.777 10.9682C524.955 10.4331 525.223 10.0764 525.669 9.71975L536.28 0.713376C536.548 0.535032 536.904 0.356688 537.35 0.178344C537.796 -1.7274e-07 538.331 0 538.866 0H566.777C574 0 579.261 1.42675 582.739 4.36943C586.216 7.3121 587.911 11.6815 587.911 17.656V43.4268C587.911 46.3694 587.465 48.9554 586.573 51.1847C585.681 53.414 584.433 55.2866 582.739 56.7134L571.949 65.6306ZM566.777 60.1911C573.643 60.1911 578.726 58.8535 582.114 56.0892C585.414 53.3248 587.108 49.1338 587.108 43.4268V17.5669C587.108 11.8599 585.414 7.57962 582.114 4.90446C578.815 2.14013 573.732 0.802548 566.777 0.802548H538.955C537.885 0.802548 537.172 1.07006 536.726 1.51592C536.28 1.96178 536.012 2.76433 536.012 3.74522V57.1592C536.012 58.2293 536.28 58.9427 536.726 59.3885C537.172 59.8344 537.974 60.1019 538.955 60.1019H566.777V60.1911ZM545.019 52.7006V8.20382H564.993C567.758 8.20382 570.076 8.47134 571.77 9.09554C573.465 9.71975 574.802 10.5223 575.783 11.5032C576.675 12.4841 577.388 13.7325 577.656 15.1592C578.012 16.586 578.191 18.1019 578.191 19.6178V41.465C578.191 43.0701 578.012 44.586 577.745 45.9236C577.477 47.2611 576.853 48.5096 575.872 49.4904C574.981 50.4713 573.554 51.2739 571.86 51.8089C570.076 52.344 567.847 52.7006 564.993 52.7006H545.019ZM564.904 9.00637H545.732V51.8981H564.904C567.579 51.8981 569.63 51.6306 571.325 51.0955C572.93 50.5605 574.178 49.8471 575.07 48.9554C575.962 48.0637 576.497 46.9936 576.853 45.6561C577.121 44.4076 577.299 42.9809 577.299 41.465V19.707C577.299 18.1911 577.121 16.8535 576.764 15.5159C576.407 14.1783 575.872 13.1083 574.981 12.1274C574.089 11.2357 572.841 10.4331 571.235 9.89809C569.63 9.27388 567.49 9.00637 564.904 9.00637ZM554.739 16.4968H564.548C565.885 16.4968 566.866 16.8535 567.49 17.4777C568.114 18.1019 568.471 19.0828 568.471 20.5096V40.5732C568.471 41.9108 568.114 42.9809 567.49 43.6051C566.866 44.2293 565.885 44.586 564.548 44.586H554.739V16.4968ZM556.968 29.5159C556.968 28.8025 556.879 28.1783 556.611 27.7325C556.433 27.1975 556.076 26.8408 555.541 26.6624V43.7834H556.968V29.5159Z" fill="black"/>
</svg>
