<svg viewBox="0 0 373 170" fill="none" xmlns="http://www.w3.org/2000/svg">
<path d="M17.5701 78.8912C16.1738 78.8912 15.0102 78.6585 14.0794 78.0767C13.2649 77.4949 12.4504 76.564 11.9849 75.284L2.90897 52.4778C2.32717 51.0815 1.86172 49.8015 1.51265 48.7543C1.16357 47.7071 0.814511 46.7762 0.581793 45.729C0.349076 44.7981 0.11633 43.7509 0.11633 42.7036C-2.84096e-05 41.6564 0 40.3765 0 38.8638V14.4285C0 13.614 0.116344 12.9158 0.349062 12.334C0.581779 11.7522 0.930841 11.2868 1.27992 10.9377L13.2649 0.81451C13.614 0.581793 13.963 0.349076 14.5448 0.232717C15.1266 0.116358 15.5921 0 16.2902 0H31.0677C32.5804 0 33.6276 0.349076 34.4421 1.04723C35.2566 1.74538 35.6057 2.79261 35.6057 4.30527V29.9042C35.6057 30.486 35.7221 31.0678 35.8385 31.6496C35.9548 32.2313 36.0712 32.8131 36.3039 33.3949L36.5366 34.0931V14.4285C36.5366 13.614 36.653 12.9158 36.8857 12.334C37.1184 11.7522 37.4675 11.2868 37.8166 10.9377L49.8015 0.81451C50.1506 0.581793 50.4997 0.349076 51.0814 0.232717C51.6632 0.116358 52.1287 0 52.8268 0H67.2553C68.768 0 69.9315 0.349076 70.5133 1.04723C71.2115 1.74538 71.4442 2.79261 71.4442 4.30527V28.8569C71.4442 30.3696 71.4442 31.6496 71.3278 32.6968C71.2115 33.744 71.0951 34.7912 70.8624 35.7221C70.6297 36.653 70.2806 37.7002 69.9315 38.7474C69.5825 39.7947 69.0007 40.9582 68.5352 42.4709L59.4592 65.2772C59.2265 65.859 58.9938 66.3244 58.7611 66.7899C58.412 67.2553 58.1793 67.6044 57.8302 67.8371L45.6126 77.6112C45.1471 78.0767 44.5653 78.4257 43.8672 78.5421C43.169 78.7748 42.4709 78.8912 41.6564 78.8912H17.5701ZM53.7577 67.8371C54.9213 67.8371 55.8521 67.6044 56.6666 67.1389C57.4812 66.6735 58.063 65.859 58.5284 64.6954L67.6044 41.8891C68.1861 40.4928 68.6516 39.3292 69.0007 38.282C69.3497 37.2348 69.6988 36.3039 69.9315 35.373C70.1642 34.4422 70.397 33.5113 70.397 32.4641C70.5134 31.4168 70.5133 30.1369 70.5133 28.7406V4.30527C70.5133 3.14168 70.2806 2.32717 69.6988 1.74538C69.117 1.16359 68.3025 0.93087 67.1389 0.93087H52.5941C51.4305 0.93087 50.616 1.16359 50.0342 1.74538C49.4524 2.32717 49.2197 3.14168 49.2197 4.30527V29.9042C49.2197 30.486 49.1033 31.1841 48.987 31.7659C48.8706 32.3477 48.6379 33.0459 48.4052 33.744L43.9836 46.8925C43.7508 47.4743 43.6345 47.9398 43.2854 48.1725C43.0527 48.4052 42.7036 48.5216 42.1218 48.5216H41.0746C40.6092 48.5216 40.2601 48.4052 39.911 48.1725C39.6783 47.9398 39.4456 47.5907 39.2128 46.8925L34.7912 33.8604C34.5585 33.1622 34.3258 32.5804 34.2094 31.8823C34.0931 31.3005 33.9767 30.6023 33.9767 30.0205V4.30527C33.9767 3.14168 33.6276 2.32717 33.0459 1.74538C32.4641 1.16359 31.5332 0.93087 30.3696 0.93087H16.0575C14.8939 0.93087 14.0794 1.16359 13.4976 1.74538C12.9158 2.32717 12.6831 3.14168 12.6831 4.30527V28.8569C12.6831 30.3696 12.6831 31.6496 12.7995 32.5804C12.9158 33.5113 13.0322 34.5585 13.2649 35.4894C13.4976 36.4203 13.8467 37.3511 14.1957 38.3984C14.5448 39.4456 15.0103 40.6092 15.5921 42.0055L24.668 64.8118C25.1334 65.9754 25.7153 66.7899 26.5298 67.2553C27.3443 67.7207 28.2751 67.9535 29.4387 67.9535H53.7577V67.8371ZM23.2717 9.30869H24.2026V29.4387C24.2026 31.0678 24.3189 32.5804 24.5516 34.0931C24.7844 35.6058 25.1334 36.8857 25.7152 38.1656L31.8823 53.0596C32.4641 54.6886 33.1622 55.9685 33.9767 57.1321C34.7912 58.1793 35.9548 58.7611 37.7002 58.7611H45.8453C47.5907 58.7611 48.8706 58.1793 49.5688 57.1321C50.3833 56.0849 51.0814 54.6886 51.6632 53.0596L57.8302 38.1656C58.2957 36.8857 58.6447 35.6058 58.9938 34.0931C59.2265 32.5804 59.3429 31.0678 59.3429 29.4387V9.30869H60.2738V29.4387C60.2738 31.1841 60.1574 32.8131 59.9247 34.2094C59.692 35.7221 59.3429 37.1184 58.7611 38.3984L52.5941 53.2923C51.8959 55.0376 50.9651 56.5503 50.0342 57.7139C49.1034 58.8775 47.707 59.4593 45.7289 59.4593H37.5838C35.6057 59.4593 34.2094 58.8775 33.2785 57.7139C32.3477 56.5503 31.5332 55.0376 30.7187 53.2923L24.5516 38.3984C23.9699 37.0021 23.6208 35.6058 23.3881 34.2094C23.1553 32.6968 23.039 31.1841 23.039 29.4387V9.30869H23.2717Z" fill="#E0FFE9"/>
<path d="M125.784 78.8912H82.6149C81.1022 78.8912 80.0549 78.5421 79.3568 77.8439C78.6586 77.1458 78.3096 76.0986 78.3096 74.5859V14.4285C78.3096 13.614 78.4259 12.9158 78.6586 12.334C78.8913 11.7522 79.2404 11.2868 79.5895 10.9377L91.5745 0.81451C91.9235 0.581793 92.2726 0.349076 92.8544 0.232717C93.4362 0.116358 93.9016 0 94.5998 0H137.769C139.282 0 140.329 0.349076 141.027 1.04723C141.725 1.74538 142.074 2.79261 142.074 4.30527V15.1266C142.074 15.9411 141.958 16.6393 141.725 17.2211C141.492 17.8029 141.143 18.2683 140.794 18.6174L132.765 25.2498C133.347 25.5989 133.813 26.0643 134.162 26.6461C134.394 27.2279 134.627 28.0424 134.627 29.0897V38.9802C134.627 39.7947 134.511 40.4928 134.278 41.0746C134.045 41.6564 133.696 42.1218 133.347 42.4709L125.086 49.4524H137.885C139.398 49.4524 140.445 49.8015 141.143 50.4997C141.841 51.1978 142.19 52.245 142.19 53.7577V64.5791C142.19 65.3936 142.074 66.0917 141.841 66.6735C141.609 67.2553 141.26 67.7207 140.911 68.0698L128.809 78.0767C128.577 78.3094 128.227 78.5421 127.646 78.7748C126.947 78.8912 126.366 78.8912 125.784 78.8912ZM137.769 67.8371C138.932 67.8371 139.747 67.6044 140.329 67.0226C140.911 66.4408 141.143 65.6263 141.143 64.4627V53.6413C141.143 52.4778 140.911 51.6632 140.329 51.0815C139.747 50.4997 138.932 50.2669 137.769 50.2669H112.17V42.2382H130.322C131.485 42.2382 132.3 42.0055 132.882 41.4237C133.464 40.8419 133.696 40.0274 133.696 38.8638V28.9733C133.696 27.8097 133.464 26.9952 132.882 26.4134C132.3 25.8316 131.485 25.5989 130.322 25.5989H112.17V18.501H137.769C138.932 18.501 139.747 18.2683 140.329 17.6865C140.911 17.1047 141.143 16.2902 141.143 15.1266V4.30527C141.143 3.14168 140.911 2.32717 140.329 1.74538C139.747 1.16359 138.932 0.93087 137.769 0.93087H94.5998C93.4362 0.93087 92.6217 1.16359 92.0399 1.74538C91.4581 2.32717 91.2254 3.14168 91.2254 4.30527V64.5791C91.2254 65.7426 91.4581 66.5572 92.0399 67.1389C92.6217 67.7207 93.4362 67.9535 94.5998 67.9535H137.769V67.8371ZM132.765 58.6448V59.5756H101.465V9.30869H132.765V10.2396H102.396V33.5113H125.202V34.5585H102.396V58.6448H132.765Z" fill="#E0FFE9"/>
<path d="M200.021 78.8912H170.698C162.553 78.8912 156.619 76.7967 152.663 72.6078C148.823 68.4189 146.845 62.95 146.845 56.2012V30.0205C146.845 26.6461 147.31 23.6208 148.357 21.1773C149.405 18.7337 150.801 16.6393 152.779 14.8939L164.764 4.7707C166.626 3.14168 169.186 1.9781 172.095 1.16359C175.12 0.349076 178.611 0 182.683 0H205.955C207.468 0 208.515 0.349076 209.213 1.04723C209.911 1.74538 210.26 2.79261 210.26 4.30527V15.5921C210.26 16.4066 210.144 17.1047 209.911 17.6865C209.678 18.2683 209.329 18.7337 208.98 19.0828L196.879 29.0897C196.646 29.3224 196.297 29.5551 195.715 29.7878C195.134 30.0205 194.668 30.0205 193.97 30.0205H181.869V43.4018C181.985 43.2854 181.985 43.1691 182.218 42.9363C182.334 42.82 182.567 42.5873 182.683 42.4709L194.668 32.3477C195.017 32.115 195.366 31.8823 195.948 31.7659C196.53 31.6496 196.995 31.5332 197.693 31.5332H212.122C213.635 31.5332 214.682 31.8823 215.38 32.5804C216.078 33.2786 216.427 34.3258 216.427 35.8385V64.5791C216.427 65.3936 216.311 66.0917 216.078 66.6735C215.845 67.2553 215.496 67.7207 215.147 68.0698L203.046 78.0767C202.813 78.3094 202.464 78.5421 201.882 78.7748C201.184 78.8912 200.602 78.8912 200.021 78.8912ZM212.006 67.8371C213.169 67.8371 213.984 67.6044 214.565 67.0226C215.147 66.4408 215.38 65.6263 215.38 64.4627V35.8385C215.38 34.6749 215.147 33.8604 214.565 33.2786C213.984 32.6968 213.169 32.4641 212.006 32.4641H197.577C196.414 32.4641 195.599 32.6968 195.017 33.2786C194.435 33.8604 194.203 34.6749 194.203 35.8385V50.3833H185.243C183.847 50.3833 182.8 50.0342 181.985 49.2197C181.287 48.5216 180.938 47.358 180.938 45.729V23.5044C180.938 21.9918 181.403 20.8282 182.334 20.0137C183.265 19.1992 184.661 18.8501 186.639 18.8501H205.955C207.119 18.8501 207.933 18.6174 208.515 18.0356C209.097 17.4538 209.329 16.6393 209.329 15.4757V4.30527C209.329 3.14168 209.097 2.32717 208.515 1.74538C207.933 1.16359 207.119 0.93087 205.955 0.93087H182.683C174.887 0.93087 169.186 2.44353 165.462 5.58522C161.739 8.7269 159.877 13.4976 159.877 19.8973V48.8706C159.877 55.2704 161.739 60.0411 165.462 63.1828C169.186 66.3244 175.004 67.8371 182.683 67.8371H212.006ZM186.756 59.5756C183.381 59.5756 180.589 59.3429 178.378 58.8775C176.167 58.4121 174.538 57.7139 173.258 56.783C171.978 55.8522 171.164 54.5722 170.698 53.0596C170.233 51.5469 170 49.6851 170 47.4743V21.5264C170 17.1047 171.047 13.963 173.025 12.1013C175.004 10.2396 178.96 9.30869 184.894 9.30869H200.952V10.2396H184.894C179.425 10.2396 175.702 11.0541 173.84 12.7995C171.862 14.5448 170.931 17.4538 170.931 21.5264V47.5907C170.931 51.6632 171.978 54.4559 174.189 56.0849C176.4 57.7139 180.472 58.6448 186.756 58.6448H204.326V40.8419H205.257V59.5756H186.756Z" fill="#E0FFE9"/>
<path d="M242.491 77.9603C242.259 78.193 241.91 78.4257 241.328 78.6584C240.746 78.8911 240.281 78.8911 239.582 78.8911H225.968C224.456 78.8911 223.409 78.5421 222.71 77.8439C222.012 77.1457 221.663 76.0985 221.663 74.5859V50.1505C221.663 48.2888 222.012 46.078 222.594 43.6344C223.176 41.1909 224.107 38.282 225.387 34.9076L233.415 13.963C233.648 13.3812 233.881 12.9158 234.114 12.5667C234.346 12.2176 234.695 11.7522 235.044 11.5195L235.161 11.4031L247.029 1.51261C247.495 1.04718 248.077 0.698101 248.775 0.581742C249.473 0.349025 250.287 0.232666 251.102 0.232666H276.119C277.515 0.232666 278.679 0.581742 279.61 1.16354C280.541 1.74533 281.122 2.6762 281.588 3.95614L289.617 25.0171C290.897 28.3915 291.827 31.3004 292.409 33.744C292.991 36.1875 293.34 38.3983 293.34 40.2601V64.8117C293.34 65.6262 293.224 66.3244 292.991 66.9062C292.758 67.488 292.409 67.9534 292.06 68.3025L279.959 78.3093C279.726 78.5421 279.377 78.7748 278.795 79.0075C278.213 79.2402 277.748 79.2402 277.05 79.2402H262.971C261.458 79.2402 260.294 78.8911 259.48 78.193C258.782 77.4948 258.316 76.4476 258.316 74.9349V62.6009H255.756V64.579C255.756 65.3935 255.64 66.0917 255.407 66.6735C255.175 67.2553 254.825 67.7207 254.476 68.0698L242.491 77.9603ZM254.942 64.579V51.5468H271.348V64.579C271.348 65.7426 271.697 66.5571 272.279 67.1389C272.861 67.7207 273.792 67.9534 275.072 67.9534H289.151C290.315 67.9534 291.129 67.7207 291.711 67.1389C292.293 66.5571 292.526 65.7426 292.526 64.579V40.0273C292.526 38.1656 292.177 36.0711 291.595 33.6276C291.013 31.1841 290.082 28.3915 288.802 25.1334L280.773 4.0725C280.424 3.02527 279.843 2.21076 279.028 1.74533C278.214 1.27989 277.283 1.04718 276.119 1.04718H251.102C249.822 1.04718 248.891 1.27989 248.077 1.74533C247.262 2.21076 246.68 3.02527 246.331 4.0725L238.302 25.1334C237.023 28.3915 236.092 31.1841 235.51 33.6276C234.928 36.0711 234.579 38.1656 234.579 40.0273V64.579C234.579 65.7426 234.812 66.5571 235.394 67.1389C235.975 67.7207 236.79 67.9534 237.953 67.9534H251.567C252.731 67.9534 253.545 67.7207 254.127 67.1389C254.709 66.5571 254.942 65.7426 254.942 64.579ZM281.588 59.5756V43.5181H245.4V59.4592H244.469V39.6783C244.469 37.9329 244.586 36.3039 244.935 34.9076C245.168 33.3949 245.633 31.9986 246.099 30.7186L252.033 15.4757C252.731 13.7303 253.545 12.334 254.36 11.054C255.174 9.89044 256.687 9.30864 258.782 9.30864H267.858C269.952 9.30864 271.348 9.89044 272.163 11.054C272.977 12.2176 273.792 13.7303 274.49 15.4757L280.89 30.6023C281.355 31.9986 281.821 33.3949 282.053 34.7912C282.286 36.3039 282.519 37.8165 282.519 39.5619V59.3429H281.588V59.5756ZM245.4 39.6783V42.5872H281.588V39.6783C281.588 38.0492 281.472 36.4202 281.122 35.0239C280.89 33.6276 280.541 32.2313 280.075 31.0677L273.676 15.9411C272.977 14.3121 272.279 13.0321 271.581 11.8685C270.883 10.8213 269.603 10.2395 267.858 10.2395H258.782C256.92 10.2395 255.64 10.8213 254.825 11.8685C254.127 12.9158 253.429 14.3121 252.731 15.8247L246.913 31.0677C246.448 32.3477 246.099 33.6276 245.866 35.0239C245.517 36.5366 245.4 38.0492 245.4 39.6783ZM260.294 20.4791C260.527 19.8973 260.76 19.5482 261.109 19.3155C261.342 19.0828 261.691 18.9664 262.04 18.9664H264.367C264.716 18.9664 265.065 19.0828 265.298 19.3155C265.53 19.5482 265.879 20.0136 266.112 20.4791L270.534 34.5585H255.989L260.294 20.4791Z" fill="#E0FFE9"/>
<path d="M333.367 67.9535L321.266 77.9603C321.033 78.193 320.684 78.4257 320.103 78.6585C319.521 78.8912 319.055 78.8912 318.357 78.8912H304.394C302.881 78.8912 301.834 78.5421 301.136 77.844C300.438 77.1458 300.089 76.0986 300.089 74.5859V14.4285C300.089 13.614 300.205 12.9158 300.438 12.334C300.671 11.7522 301.02 11.2868 301.369 10.9377L313.354 0.81451C313.703 0.581793 314.052 0.349076 314.634 0.232717C315.215 0.116358 315.681 0 316.379 0H326.037C327.433 0 328.597 0.232717 329.528 0.698151C330.459 1.16359 331.389 1.86174 332.32 2.79261L338.72 10.2396L350.007 0.81451C350.356 0.581793 350.705 0.349076 351.287 0.232717C351.868 0.116358 352.334 0 353.032 0H366.995C368.508 0 369.555 0.349076 370.253 1.04723C370.951 1.74538 371.3 2.79261 371.3 4.30527V64.5791C371.3 65.3936 371.184 66.0917 370.951 66.6735C370.719 67.2553 370.37 67.7207 370.02 68.0698L357.919 78.0767C357.686 78.3094 357.337 78.5421 356.756 78.7748C356.174 79.0075 355.708 79.0075 355.01 79.0075H341.047C339.534 79.0075 338.487 78.6585 337.789 77.9603C337.091 77.2622 336.742 76.2149 336.742 74.7023V63.6482L334.647 61.0883V64.5791C334.647 65.3936 334.531 66.0917 334.298 66.6735C334.182 67.139 333.833 67.6044 333.367 67.9535ZM330.459 67.8371C331.622 67.8371 332.437 67.6044 333.018 67.0226C333.6 66.4408 333.833 65.6263 333.833 64.4627V33.8604L349.774 53.0596V64.4627C349.774 65.6263 350.007 66.4408 350.589 67.0226C351.17 67.6044 351.985 67.8371 353.148 67.8371H367.111C368.275 67.8371 369.09 67.6044 369.671 67.0226C370.253 66.4408 370.486 65.6263 370.486 64.4627V4.30527C370.486 3.14168 370.253 2.32717 369.671 1.74538C369.09 1.16359 368.275 0.93087 367.111 0.93087H353.148C351.985 0.93087 351.17 1.16359 350.589 1.74538C350.007 2.32717 349.774 3.14168 349.774 4.30527V24.0862L331.622 3.49076C330.808 2.55989 329.993 1.86174 329.179 1.51266C328.364 1.16359 327.317 0.93087 326.153 0.93087H316.495C315.332 0.93087 314.517 1.16359 313.936 1.74538C313.354 2.32717 313.121 3.14168 313.121 4.30527V64.5791C313.121 65.7427 313.354 66.5572 313.936 67.139C314.517 67.7207 315.332 67.9535 316.495 67.9535H330.459V67.8371ZM325.339 10.1232L359.548 48.5216V9.30869H360.479V59.4593H359.548V49.9179L324.408 10.5886C324.291 10.4723 324.291 10.4723 324.175 10.3559C324.059 10.2396 324.059 10.2396 323.942 10.2396C323.826 10.2396 323.826 10.2396 323.826 10.3559C323.826 10.4723 323.826 10.4723 323.826 10.5886V59.5756H322.895V10.3559C322.895 10.0068 323.012 9.65777 323.244 9.54141C323.477 9.30869 323.71 9.30869 323.942 9.30869C324.175 9.30869 324.408 9.42505 324.641 9.54141C324.873 9.54141 325.106 9.77413 325.339 10.1232Z" fill="#E0FFE9"/>
<path d="M54.1069 146.03H5.58531C4.07265 146.03 3.02544 145.681 2.32729 145.099C1.62913 144.401 1.28003 143.354 1.28003 141.841V129.274C1.28003 128.46 1.39641 127.762 1.62913 127.18C1.86184 126.598 2.21091 126.133 2.55998 125.784L14.5449 115.66C14.894 115.428 15.2431 115.195 15.8249 115.079C16.4067 114.962 16.8721 114.846 17.5702 114.846H66.0918C67.6045 114.846 68.6517 115.195 69.3498 115.777C70.048 116.475 70.3971 117.522 70.3971 119.035V131.485C70.3971 132.3 70.2807 132.998 70.048 133.58C69.8153 134.161 69.4662 134.627 69.1171 134.976L57.1322 145.099C56.7831 145.332 56.3177 145.565 55.8523 145.681C55.2705 145.914 54.6887 146.03 54.1069 146.03ZM17.5702 134.976H66.0918C67.2554 134.976 68.0699 134.743 68.6517 134.161C69.2335 133.58 69.4662 132.765 69.4662 131.602V119.151C69.4662 117.988 69.2335 117.173 68.6517 116.591C68.0699 116.01 67.2554 115.777 66.0918 115.777H17.5702C16.4067 115.777 15.5922 116.01 15.0104 116.591C14.4286 117.173 14.1958 117.988 14.1958 119.151V131.602C14.1958 132.765 14.4286 133.58 15.0104 134.161C15.5922 134.743 16.4067 134.976 17.5702 134.976ZM61.0884 124.969V125.9H22.5737V124.969H61.0884Z" fill="#E0FFE9"/>
<path d="M108.563 169.884H94.1341C92.6215 169.884 91.5742 169.535 90.8761 168.836C90.1779 168.138 89.8289 167.091 89.8289 165.578V105.421C89.8289 104.606 89.9452 103.908 90.178 103.326C90.4107 102.745 90.7597 102.279 91.1088 101.93L103.094 91.8069C103.443 91.5742 103.792 91.3415 104.374 91.2251C104.955 91.1088 105.421 90.9924 106.119 90.9924H147.543C149.055 90.9924 150.103 91.3415 150.801 92.0397C151.499 92.7378 151.848 93.785 151.848 95.2977V106.352C151.848 107.166 151.732 107.864 151.499 108.446C151.266 109.028 150.917 109.493 150.568 109.843L140.212 118.453C141.608 118.453 142.656 118.802 143.354 119.5C144.052 120.198 144.401 121.246 144.401 122.758V133.929C144.401 134.743 144.285 135.441 144.052 136.023C143.819 136.605 143.47 137.07 143.121 137.42L131.02 147.426C130.787 147.659 130.438 147.892 129.856 148.125C129.274 148.357 128.809 148.357 128.111 148.357H124.853V155.571C124.853 156.386 124.736 157.084 124.504 157.666C124.271 158.248 123.922 158.713 123.573 159.062L111.472 169.069C111.239 169.302 110.89 169.535 110.308 169.767C109.726 169.884 109.144 169.884 108.563 169.884ZM120.548 158.83C121.711 158.83 122.526 158.597 123.107 158.015C123.689 157.433 123.922 156.619 123.922 155.455V137.187H140.096C141.259 137.187 142.074 136.954 142.656 136.372C143.237 135.791 143.47 134.976 143.47 133.812V122.642C143.47 121.478 143.237 120.664 142.656 120.082C142.074 119.5 141.259 119.268 140.096 119.268H123.922V109.61H147.659C148.823 109.61 149.637 109.377 150.219 108.795C150.801 108.214 151.034 107.399 151.034 106.235V95.1813C151.034 94.0178 150.801 93.2032 150.219 92.6215C149.637 92.0397 148.823 91.8069 147.659 91.8069H106.235C105.072 91.8069 104.257 92.0397 103.676 92.6215C103.094 93.2032 102.861 94.0178 102.861 95.1813V155.571C102.861 156.735 103.094 157.55 103.676 158.131C104.257 158.713 105.072 158.946 106.235 158.946H120.548V158.83ZM112.984 150.452V100.301H142.656V101.232H113.915V127.762H135.092V128.809H113.915V150.568H112.984V150.452Z" fill="#E0FFE9"/>
<path d="M198.973 169.884H159.411C157.899 169.884 156.852 169.535 156.153 168.836C155.455 168.138 155.106 167.091 155.106 165.578V154.524C155.106 153.71 155.223 153.012 155.455 152.43C155.688 151.848 156.037 151.383 156.386 151.034L167.673 141.608V121.013H159.411C157.899 121.013 156.852 120.664 156.153 119.966C155.455 119.268 155.106 118.22 155.106 116.708V105.421C155.106 104.606 155.223 103.908 155.455 103.326C155.688 102.745 156.037 102.279 156.386 101.93L168.371 91.8069C168.72 91.5742 169.069 91.3415 169.651 91.2251C170.233 91.1088 170.698 90.9924 171.396 90.9924H210.958C212.471 90.9924 213.518 91.3415 214.216 92.0397C214.915 92.7378 215.264 93.785 215.264 95.2977V106.584C215.264 107.399 215.147 108.097 214.915 108.679C214.682 109.261 214.333 109.726 213.984 110.075L202.93 119.384V140.329H210.958C212.471 140.329 213.518 140.678 214.216 141.376C214.915 142.074 215.264 143.121 215.264 144.634V155.688C215.264 156.502 215.147 157.201 214.915 157.782C214.682 158.364 214.333 158.83 213.984 159.179L201.882 169.185C201.65 169.418 201.301 169.651 200.719 169.884C200.137 169.884 199.672 169.884 198.973 169.884ZM171.396 158.83H210.958C212.122 158.83 212.936 158.597 213.518 158.015C214.1 157.433 214.333 156.619 214.333 155.455V144.401C214.333 143.237 214.1 142.423 213.518 141.841C212.936 141.259 212.122 141.027 210.958 141.027H201.999V109.843H210.958C212.122 109.843 212.936 109.61 213.518 109.028C214.1 108.446 214.333 107.632 214.333 106.468V95.1813C214.333 94.0178 214.1 93.2032 213.518 92.6215C212.936 92.0397 212.122 91.8069 210.958 91.8069H171.396C170.233 91.8069 169.418 92.0397 168.837 92.6215C168.255 93.2032 168.022 94.0178 168.022 95.1813V106.468C168.022 107.632 168.255 108.446 168.837 109.028C169.418 109.61 170.233 109.843 171.396 109.843H180.589V141.027H171.396C170.233 141.027 169.418 141.259 168.837 141.841C168.255 142.423 168.022 143.237 168.022 144.401V155.455C168.022 156.619 168.255 157.433 168.837 158.015C169.418 158.597 170.233 158.83 171.396 158.83ZM205.955 150.452H176.4V149.521H190.828V101.232H176.4V100.301H205.955V101.232H191.759V149.521H205.955V150.452Z" fill="#E0FFE9"/>
<path d="M255.291 158.946L243.19 168.953C242.957 169.185 242.608 169.418 242.026 169.651C241.444 169.884 240.979 169.884 240.281 169.884H226.318C224.805 169.884 223.758 169.535 223.06 168.836C222.362 168.138 222.012 167.091 222.012 165.578V105.421C222.012 104.606 222.129 103.908 222.362 103.326C222.594 102.745 222.943 102.279 223.292 101.93L235.277 91.8069C235.626 91.5742 235.975 91.3415 236.557 91.2251C237.139 91.1088 237.605 90.9924 238.303 90.9924H247.96C249.357 90.9924 250.52 91.2251 251.451 91.6906C252.382 92.156 253.313 92.8542 254.244 93.785L260.644 101.232L271.93 91.8069C272.279 91.5742 272.628 91.3415 273.21 91.2251C273.792 91.1088 274.257 90.9924 274.956 90.9924H288.919C290.431 90.9924 291.479 91.3415 292.177 92.0397C292.875 92.7378 293.224 93.785 293.224 95.2977V155.571C293.224 156.386 293.108 157.084 292.875 157.666C292.642 158.248 292.293 158.713 291.944 159.062L279.843 169.069C279.61 169.302 279.261 169.535 278.679 169.767C278.097 170 277.632 170 276.934 170H262.971C261.458 170 260.411 169.651 259.713 168.953C259.014 168.255 258.665 167.207 258.665 165.695V154.641L256.571 152.081V155.571C256.571 156.386 256.455 157.084 256.222 157.666C256.106 158.131 255.756 158.597 255.291 158.946ZM252.382 158.83C253.546 158.83 254.36 158.597 254.942 158.015C255.524 157.433 255.756 156.619 255.756 155.455V124.853L271.698 144.052V155.455C271.698 156.619 271.93 157.433 272.512 158.015C273.094 158.597 273.908 158.83 275.072 158.83H289.035C290.199 158.83 291.013 158.597 291.595 158.015C292.177 157.433 292.409 156.619 292.409 155.455V95.2977C292.409 94.1341 292.177 93.3196 291.595 92.7378C291.013 92.156 290.199 91.9233 289.035 91.9233H275.072C273.908 91.9233 273.094 92.156 272.512 92.7378C271.93 93.3196 271.698 94.1341 271.698 95.2977V115.079L253.662 94.4832C252.848 93.5523 252.033 92.8542 251.218 92.5051C250.404 92.156 249.357 91.9233 248.193 91.9233H238.535C237.372 91.9233 236.557 92.156 235.975 92.7378C235.394 93.3196 235.161 94.1341 235.161 95.2977V155.571C235.161 156.735 235.394 157.55 235.975 158.131C236.557 158.713 237.372 158.946 238.535 158.946H252.382V158.83ZM247.379 101.116L281.588 139.63V100.301H282.519V150.452H281.588V140.91L246.448 101.581C246.331 101.465 246.331 101.465 246.215 101.348C246.099 101.232 246.099 101.232 245.982 101.232C245.866 101.232 245.866 101.232 245.866 101.348C245.866 101.465 245.866 101.465 245.866 101.581V150.568H244.935V101.348C244.935 100.999 245.051 100.65 245.284 100.534C245.517 100.301 245.75 100.301 245.982 100.301C246.215 100.301 246.448 100.417 246.681 100.534C246.797 100.534 247.03 100.767 247.379 101.116Z" fill="#E0FFE9"/>
<path d="M354.894 164.997C352.916 166.626 350.472 167.789 347.563 168.72C344.538 169.535 341.047 170 337.091 170H305.791C304.278 170 303.231 169.651 302.533 168.953C301.834 168.255 301.485 167.207 301.485 165.695V105.421C301.485 104.606 301.602 103.908 301.834 103.326C302.067 102.745 302.416 102.279 302.765 101.93L314.75 91.8069C315.099 91.5742 315.448 91.3415 316.03 91.2251C316.612 91.1088 317.077 90.9924 317.776 90.9924H349.076C357.221 90.9924 363.155 92.6214 367.112 95.8795C370.952 99.1375 372.93 104.141 372.93 110.89V139.863C372.93 143.237 372.464 146.146 371.417 148.59C370.37 151.15 368.973 153.244 366.995 154.873L354.894 164.997ZM348.96 158.83C356.756 158.83 362.457 157.317 366.181 154.175C369.904 151.034 371.766 146.263 371.766 139.863V110.89C371.766 104.49 369.904 99.7193 366.181 96.5777C362.457 93.436 356.639 91.9233 348.96 91.9233H317.659C316.496 91.9233 315.681 92.156 315.099 92.7378C314.518 93.3196 314.285 94.1341 314.285 95.2977V155.571C314.285 156.735 314.518 157.55 315.099 158.131C315.681 158.713 316.496 158.946 317.659 158.946H348.96V158.83ZM324.408 150.452V100.301H346.865C350.007 100.301 352.567 100.65 354.545 101.348C356.523 102.047 358.036 102.977 359.083 104.141C360.13 105.305 360.828 106.701 361.177 108.214C361.526 109.843 361.759 111.472 361.759 113.333V138.001C361.759 139.747 361.643 141.492 361.294 143.005C360.945 144.517 360.247 145.914 359.199 146.961C358.152 148.125 356.639 148.939 354.661 149.637C352.683 150.335 350.123 150.568 346.982 150.568H324.408V150.452ZM346.982 101.232H325.455V149.521H346.982C350.007 149.521 352.334 149.172 354.196 148.59C356.058 148.008 357.454 147.194 358.385 146.146C359.432 145.099 360.014 143.936 360.363 142.423C360.712 140.91 360.828 139.398 360.828 137.769V113.217C360.828 111.588 360.596 109.959 360.246 108.446C359.897 106.934 359.199 105.654 358.152 104.606C357.105 103.559 355.709 102.745 353.963 102.047C352.218 101.581 349.891 101.232 346.982 101.232ZM335.462 109.726H346.516C348.029 109.726 349.076 110.075 349.774 110.773C350.472 111.472 350.821 112.635 350.821 114.148V136.721C350.821 138.234 350.472 139.398 349.774 140.212C349.076 140.91 347.912 141.376 346.516 141.376H335.462V109.726ZM337.906 124.271C337.906 123.457 337.789 122.758 337.557 122.177C337.324 121.595 336.858 121.246 336.393 121.013V140.329H338.022V124.271H337.906Z" fill="#E0FFE9"/>
</svg>
