<svg width="235" height="107" viewBox="0 0 235 107" fill="none" xmlns="http://www.w3.org/2000/svg">
<path d="M11.0328 49.7902C10.156 49.7902 9.42536 49.6441 8.84084 49.2788C8.32938 48.9134 7.81794 48.3289 7.52568 47.5252L1.82662 33.2045C1.4613 32.3277 1.16903 31.524 0.949835 30.8664C0.73064 30.2088 0.511454 29.6243 0.365325 28.9667C0.219195 28.3822 0.0730471 27.7246 0.0730471 27.067C-1.78392e-05 26.4094 0 25.6057 0 24.6559V9.31225C0 8.80079 0.073056 8.3624 0.219186 7.99708C0.365316 7.63175 0.584502 7.33949 0.803696 7.1203L8.3294 0.763652C8.54859 0.617522 8.76779 0.471392 9.13311 0.398327C9.49844 0.325262 9.7907 0.252197 10.2291 0.252197H19.5083C20.4582 0.252197 21.1157 0.471392 21.6272 0.909781C22.1387 1.34817 22.3578 2.00576 22.3578 2.9556V19.0299C22.3578 19.3952 22.4309 19.7605 22.504 20.1259C22.5771 20.4912 22.6501 20.8565 22.7962 21.2218L22.9424 21.6602V9.31225C22.9424 8.80079 23.0154 8.3624 23.1616 7.99708C23.3077 7.63175 23.5269 7.33949 23.7461 7.1203L31.2718 0.763652C31.491 0.617522 31.7102 0.471392 32.0755 0.398327C32.4408 0.325262 32.7331 0.252197 33.1715 0.252197H42.2315C43.1814 0.252197 43.912 0.471392 44.2773 0.909781C44.7157 1.34817 44.8619 2.00576 44.8619 2.9556V18.3723C44.8619 19.3221 44.8619 20.1259 44.7888 20.7834C44.7157 21.441 44.6427 22.0986 44.4965 22.6831C44.3504 23.2676 44.1312 23.9252 43.912 24.5828C43.6928 25.2404 43.3275 25.971 43.0352 26.9209L37.3362 41.2416C37.19 41.6069 37.0439 41.8992 36.8978 42.1915C36.6786 42.4837 36.5324 42.7029 36.3133 42.849L28.6414 48.9865C28.3492 49.2788 27.9839 49.498 27.5455 49.571C27.1071 49.7171 26.6687 49.7902 26.1572 49.7902H11.0328ZM33.756 42.849C34.4866 42.849 35.0711 42.7029 35.5826 42.4107C36.0941 42.1184 36.4594 41.6069 36.7516 40.8763L42.4507 26.5556C42.816 25.6788 43.1083 24.9481 43.3275 24.2906C43.5467 23.633 43.7659 23.0485 43.912 22.4639C44.0581 21.8794 44.2043 21.2949 44.2043 20.6373C44.2773 19.9797 44.2773 19.176 44.2773 18.2992V2.9556C44.2773 2.22495 44.1312 1.7135 43.7659 1.34817C43.4006 0.982846 42.8891 0.836717 42.1584 0.836717H33.0253C32.2947 0.836717 31.7832 0.982846 31.4179 1.34817C31.0526 1.7135 30.9065 2.22495 30.9065 2.9556V19.0299C30.9065 19.3952 30.8334 19.8336 30.7603 20.1989C30.6872 20.5642 30.5411 21.0026 30.395 21.441L27.6185 29.6974C27.4724 30.0627 27.3993 30.3549 27.1801 30.5011C27.034 30.6472 26.8148 30.7203 26.4495 30.7203H25.7919C25.4996 30.7203 25.2805 30.6472 25.0613 30.5011C24.9151 30.3549 24.769 30.1357 24.6229 29.6974L21.8464 21.5141C21.7003 21.0757 21.5541 20.7104 21.4811 20.272C21.408 19.9067 21.3349 19.4683 21.3349 19.1029V2.9556C21.3349 2.22495 21.1158 1.7135 20.7504 1.34817C20.3851 0.982846 19.8006 0.836717 19.0699 0.836717H10.0829C9.3523 0.836717 8.84084 0.982846 8.47551 1.34817C8.11019 1.7135 7.96407 2.22495 7.96407 2.9556V18.3723C7.96407 19.3221 7.96408 20.1259 8.03714 20.7104C8.11021 21.2949 8.18327 21.9525 8.3294 22.537C8.47553 23.1215 8.69471 23.706 8.91391 24.3636C9.1331 25.0212 9.42537 25.7519 9.79069 26.6286L15.4897 40.9494C15.782 41.68 16.1473 42.1915 16.6588 42.4837C17.1702 42.776 17.7548 42.9221 18.4854 42.9221H33.756V42.849ZM14.613 6.09739H15.1975V18.7376C15.1975 19.7605 15.2705 20.7104 15.4167 21.6602C15.5628 22.6101 15.782 23.4138 16.1473 24.2175L20.0198 33.5698C20.3851 34.5927 20.8235 35.3964 21.3349 36.1271C21.8464 36.7847 22.5771 37.15 23.673 37.15H28.7876C29.8835 37.15 30.6872 36.7847 31.1256 36.1271C31.6371 35.4695 32.0755 34.5927 32.4408 33.5698L36.3133 24.2175C36.6055 23.4138 36.8247 22.6101 37.0439 21.6602C37.19 20.7104 37.2631 19.7605 37.2631 18.7376V6.09739H37.8476V18.7376C37.8476 19.8336 37.7746 20.8565 37.6284 21.7333C37.4823 22.6831 37.2631 23.5599 36.8978 24.3636L33.0253 33.7159C32.5869 34.8119 32.0024 35.7617 31.4179 36.4924C30.8334 37.223 29.9566 37.5884 28.7145 37.5884H23.6C22.3579 37.5884 21.4811 37.223 20.8965 36.4924C20.312 35.7617 19.8006 34.8119 19.2891 33.7159L15.4167 24.3636C15.0514 23.4868 14.8322 22.6101 14.686 21.7333C14.5399 20.7834 14.4668 19.8336 14.4668 18.7376V6.09739H14.613Z" fill="black"/>
<path d="M78.9833 49.7902H51.8763C50.9264 49.7902 50.2688 49.571 49.8304 49.1326C49.392 48.6942 49.1729 48.0367 49.1729 47.0868V9.31225C49.1729 8.80079 49.2459 8.3624 49.392 7.99708C49.5382 7.63175 49.7574 7.33949 49.9766 7.1203L57.5022 0.763652C57.7214 0.617522 57.9406 0.471392 58.306 0.398327C58.6713 0.325262 58.9636 0.252197 59.4019 0.252197H86.509C87.4589 0.252197 88.1164 0.471392 88.5548 0.909781C88.9932 1.34817 89.2124 2.00576 89.2124 2.9556V9.75064C89.2124 10.2621 89.1394 10.7005 88.9932 11.0658C88.8471 11.4311 88.6279 11.7234 88.4087 11.9426L83.3672 16.1073C83.7325 16.3265 84.0248 16.6187 84.244 16.9841C84.3901 17.3494 84.5363 17.8608 84.5363 18.5184V24.7289C84.5363 25.2404 84.4632 25.6788 84.3171 26.0441C84.171 26.4094 83.9517 26.7017 83.7325 26.9209L78.545 31.3048H86.5821C87.5319 31.3048 88.1895 31.524 88.6279 31.9624C89.0663 32.4008 89.2855 33.0583 89.2855 34.0082V40.8032C89.2855 41.3147 89.2124 41.7531 89.0663 42.1184C88.9202 42.4837 88.701 42.776 88.4818 42.9952L80.883 49.2788C80.7369 49.4249 80.5177 49.571 80.1524 49.7171C79.714 49.7902 79.3487 49.7902 78.9833 49.7902ZM86.509 42.849C87.2397 42.849 87.7511 42.7029 88.1164 42.3376C88.4818 41.9723 88.6279 41.4608 88.6279 40.7302V33.9351C88.6279 33.2045 88.4818 32.693 88.1164 32.3277C87.7511 31.9624 87.2397 31.8162 86.509 31.8162H70.4347V26.7748H81.8329C82.5635 26.7748 83.075 26.6286 83.4403 26.2633C83.8056 25.898 83.9518 25.3865 83.9518 24.6559V18.4454C83.9518 17.7147 83.8056 17.2033 83.4403 16.8379C83.075 16.4726 82.5635 16.3265 81.8329 16.3265H70.4347V11.8695H86.509C87.2397 11.8695 87.7511 11.7234 88.1164 11.3581C88.4818 10.9927 88.6279 10.4813 88.6279 9.75064V2.9556C88.6279 2.22495 88.4818 1.7135 88.1164 1.34817C87.7511 0.982846 87.2397 0.836717 86.509 0.836717H59.4019C58.6713 0.836717 58.1598 0.982846 57.7945 1.34817C57.4292 1.7135 57.2831 2.22495 57.2831 2.9556V40.8032C57.2831 41.5339 57.4292 42.0453 57.7945 42.4107C58.1598 42.776 58.6713 42.9221 59.4019 42.9221H86.509V42.849ZM83.3672 37.0769V37.6614H63.7128V6.09739H83.3672V6.68191H64.2973V21.2949H78.618V21.9525H64.2973V37.0769H83.3672Z" fill="black"/>
<path d="M125.599 49.7902H107.186C102.072 49.7902 98.3455 48.475 95.8613 45.8447C93.4501 43.2144 92.208 39.7803 92.208 35.5426V19.1029C92.208 16.9841 92.5003 15.0844 93.1579 13.55C93.8154 12.0156 94.6922 10.7005 95.9343 9.60451L103.46 3.24786C104.629 2.22495 106.236 1.4943 108.063 0.982846C109.963 0.471392 112.155 0.252197 114.712 0.252197H129.325C130.275 0.252197 130.932 0.471392 131.371 0.909781C131.809 1.34817 132.028 2.00576 132.028 2.9556V10.0429C132.028 10.5543 131.955 10.9927 131.809 11.3581C131.663 11.7234 131.444 12.0156 131.225 12.2348L123.626 18.5184C123.48 18.6646 123.261 18.8107 122.895 18.9568C122.53 19.1029 122.238 19.1029 121.799 19.1029H114.201V27.5054C114.274 27.4323 114.274 27.3593 114.42 27.2132C114.493 27.1401 114.639 26.994 114.712 26.9209L122.238 20.5642C122.457 20.4181 122.676 20.272 123.041 20.1989C123.407 20.1259 123.699 20.0528 124.137 20.0528H133.197C134.147 20.0528 134.805 20.272 135.243 20.7104C135.682 21.1488 135.901 21.8063 135.901 22.7562V40.8032C135.901 41.3147 135.828 41.7531 135.682 42.1184C135.536 42.4837 135.316 42.776 135.097 42.9952L127.498 49.2788C127.352 49.4249 127.133 49.571 126.768 49.7171C126.329 49.7902 125.964 49.7902 125.599 49.7902ZM133.124 42.849C133.855 42.849 134.366 42.7029 134.732 42.3376C135.097 41.9723 135.243 41.4608 135.243 40.7302V22.7562C135.243 22.0255 135.097 21.5141 134.732 21.1488C134.366 20.7834 133.855 20.6373 133.124 20.6373H124.064C123.334 20.6373 122.822 20.7834 122.457 21.1488C122.092 21.5141 121.945 22.0255 121.945 22.7562V31.8893H116.319C115.443 31.8893 114.785 31.6701 114.274 31.1587C113.835 30.7203 113.616 29.9896 113.616 28.9667V15.0113C113.616 14.0615 113.908 13.3308 114.493 12.8194C115.077 12.3079 115.954 12.0887 117.196 12.0887H129.325C130.056 12.0887 130.567 11.9426 130.932 11.5773C131.298 11.2119 131.444 10.7005 131.444 9.96983V2.9556C131.444 2.22495 131.298 1.7135 130.932 1.34817C130.567 0.982846 130.056 0.836717 129.325 0.836717H114.712C109.817 0.836717 106.236 1.78656 103.898 3.75931C101.56 5.73207 100.391 8.72773 100.391 12.7463V30.9395C100.391 34.958 101.56 37.9537 103.898 39.9264C106.236 41.8992 109.89 42.849 114.712 42.849H133.124ZM117.269 37.6614C115.15 37.6614 113.397 37.5153 112.009 37.223C110.62 36.9308 109.597 36.4924 108.794 35.9079C107.99 35.3234 107.479 34.5196 107.186 33.5698C106.894 32.62 106.748 31.4509 106.748 30.0627V13.7692C106.748 10.9927 107.406 9.01999 108.648 7.85095C109.89 6.68191 112.374 6.09739 116.1 6.09739H126.183V6.68191H116.1C112.666 6.68191 110.328 7.19336 109.159 8.28934C107.917 9.38531 107.332 11.2119 107.332 13.7692V30.1357C107.332 32.693 107.99 34.4466 109.378 35.4695C110.766 36.4924 113.324 37.0769 117.269 37.0769H128.302V25.898H128.887V37.6614H117.269Z" fill="black"/>
<path d="M152.268 49.2056C152.121 49.3517 151.902 49.4978 151.537 49.6439C151.172 49.7901 150.879 49.7901 150.441 49.7901H141.892C140.943 49.7901 140.285 49.5709 139.847 49.1325C139.408 48.6941 139.189 48.0365 139.189 47.0867V31.743C139.189 30.574 139.408 29.1858 139.773 27.6514C140.139 26.117 140.723 24.2904 141.527 22.1715L146.569 9.01985C146.715 8.65453 146.861 8.36227 147.007 8.14307C147.153 7.92388 147.372 7.63162 147.591 7.48549L147.664 7.41243L155.117 1.20191C155.409 0.909648 155.775 0.690453 156.213 0.617388C156.651 0.471258 157.163 0.398193 157.674 0.398193H173.383C174.26 0.398193 174.991 0.617388 175.575 0.982713C176.16 1.34804 176.525 1.93256 176.817 2.73627L181.859 15.961C182.663 18.0799 183.247 19.9065 183.612 21.4409C183.978 22.9753 184.197 24.3635 184.197 25.5325V40.9492C184.197 41.4607 184.124 41.8991 183.978 42.2644C183.832 42.6297 183.612 42.922 183.393 43.1412L175.794 49.4248C175.648 49.5709 175.429 49.717 175.064 49.8631C174.698 50.0093 174.406 50.0093 173.968 50.0093H165.127C164.177 50.0093 163.447 49.7901 162.935 49.3517C162.497 48.9133 162.204 48.2557 162.204 47.3059V39.561H160.597V40.8031C160.597 41.3145 160.524 41.7529 160.378 42.1183C160.232 42.4836 160.012 42.7758 159.793 42.995L152.268 49.2056ZM160.086 40.8031V32.6198H170.388V40.8031C170.388 41.5337 170.607 42.0452 170.972 42.4105C171.338 42.7758 171.922 42.922 172.726 42.922H181.567C182.297 42.922 182.809 42.7758 183.174 42.4105C183.539 42.0452 183.685 41.5337 183.685 40.8031V25.3864C183.685 24.2174 183.466 22.9022 183.101 21.3678C182.736 19.8335 182.151 18.0799 181.347 16.0341L176.306 2.80934C176.087 2.15175 175.721 1.6403 175.21 1.34804C174.699 1.05578 174.114 0.909648 173.383 0.909648H157.674C156.871 0.909648 156.286 1.05578 155.775 1.34804C155.263 1.6403 154.898 2.15175 154.679 2.80934L149.637 16.0341C148.834 18.0799 148.249 19.8335 147.884 21.3678C147.518 22.9022 147.299 24.2174 147.299 25.3864V40.8031C147.299 41.5337 147.445 42.0452 147.811 42.4105C148.176 42.7758 148.687 42.922 149.418 42.922H157.967C158.697 42.922 159.209 42.7758 159.574 42.4105C159.939 42.0452 160.086 41.5337 160.086 40.8031ZM176.817 37.6613V27.5783H154.094V37.5882H153.51V25.1672C153.51 24.0712 153.583 23.0483 153.802 22.1715C153.948 21.2217 154.24 20.3449 154.533 19.5412L158.259 9.9697C158.697 8.87372 159.209 7.99694 159.72 7.19323C160.232 6.46258 161.182 6.09726 162.497 6.09726H168.196C169.511 6.09726 170.388 6.46258 170.899 7.19323C171.411 7.92388 171.922 8.87372 172.36 9.9697L176.379 19.4681C176.671 20.3449 176.964 21.2217 177.11 22.0985C177.256 23.0483 177.402 23.9982 177.402 25.0941V37.5152H176.817V37.6613ZM154.094 25.1672V26.9938H176.817V25.1672C176.817 24.1443 176.744 23.1214 176.525 22.2446C176.379 21.3678 176.16 20.491 175.868 19.7604L171.849 10.262C171.411 9.23905 170.972 8.43533 170.534 7.70469C170.095 7.0471 169.292 6.68178 168.196 6.68178H162.497C161.328 6.68178 160.524 7.0471 160.012 7.70469C159.574 8.36227 159.136 9.23905 158.697 10.1889L155.044 19.7604C154.752 20.5641 154.533 21.3678 154.386 22.2446C154.167 23.1944 154.094 24.1443 154.094 25.1672ZM163.447 13.1115C163.593 12.7462 163.739 12.527 163.958 12.3808C164.104 12.2347 164.323 12.1616 164.542 12.1616H166.004C166.223 12.1616 166.442 12.2347 166.588 12.3808C166.734 12.527 166.954 12.8192 167.1 13.1115L169.876 21.9523H160.743L163.447 13.1115Z" fill="black"/>
<path d="M209.331 42.9221L201.732 49.2057C201.586 49.3518 201.367 49.498 201.002 49.6441C200.636 49.7902 200.344 49.7902 199.906 49.7902H191.138C190.188 49.7902 189.53 49.571 189.092 49.1326C188.654 48.6942 188.434 48.0367 188.434 47.0868V9.31225C188.434 8.80079 188.507 8.3624 188.654 7.99708C188.8 7.63175 189.019 7.33949 189.238 7.1203L196.764 0.763652C196.983 0.617522 197.202 0.471392 197.567 0.398327C197.933 0.325262 198.225 0.252197 198.663 0.252197H204.728C205.605 0.252197 206.335 0.398327 206.92 0.690586C207.504 0.982846 208.089 1.42124 208.673 2.00575L212.692 6.68191L219.779 0.763652C219.998 0.617522 220.218 0.471392 220.583 0.398327C220.948 0.325262 221.24 0.252197 221.679 0.252197H230.447C231.396 0.252197 232.054 0.471392 232.493 0.909781C232.931 1.34817 233.15 2.00576 233.15 2.9556V40.8032C233.15 41.3147 233.077 41.7531 232.931 42.1184C232.785 42.4837 232.566 42.776 232.346 42.9952L224.748 49.2788C224.601 49.4249 224.382 49.571 224.017 49.7171C223.652 49.8633 223.359 49.8633 222.921 49.8633H214.153C213.203 49.8633 212.546 49.6441 212.107 49.2057C211.669 48.7673 211.45 48.1097 211.45 47.1599V40.2187L210.135 38.6113V40.8032C210.135 41.3147 210.062 41.7531 209.915 42.1184C209.842 42.4107 209.623 42.7029 209.331 42.9221ZM207.504 42.849C208.235 42.849 208.746 42.7029 209.112 42.3376C209.477 41.9723 209.623 41.4608 209.623 40.7302V21.5141L219.633 33.5698V40.7302C219.633 41.4608 219.779 41.9723 220.145 42.3376C220.51 42.7029 221.021 42.849 221.752 42.849H230.52C231.25 42.849 231.762 42.7029 232.127 42.3376C232.493 41.9723 232.639 41.4608 232.639 40.7302V2.9556C232.639 2.22495 232.493 1.7135 232.127 1.34817C231.762 0.982846 231.25 0.836717 230.52 0.836717H221.752C221.021 0.836717 220.51 0.982846 220.145 1.34817C219.779 1.7135 219.633 2.22495 219.633 2.9556V15.3766L208.235 2.44414C207.723 1.85963 207.212 1.42124 206.701 1.20204C206.189 0.982847 205.532 0.836717 204.801 0.836717H198.737C198.006 0.836717 197.494 0.982846 197.129 1.34817C196.764 1.7135 196.618 2.22495 196.618 2.9556V40.8032C196.618 41.5339 196.764 42.0453 197.129 42.4107C197.494 42.776 198.006 42.9221 198.737 42.9221H207.504V42.849ZM204.289 6.60884L225.771 30.7203V6.09739H226.355V37.5884H225.771V31.597L203.705 6.9011C203.632 6.82804 203.632 6.82804 203.559 6.75497C203.486 6.68191 203.486 6.68191 203.413 6.68191C203.34 6.68191 203.34 6.68191 203.34 6.75497C203.34 6.82804 203.34 6.82804 203.34 6.9011V37.6614H202.755V6.75497C202.755 6.53578 202.828 6.31659 202.974 6.24352C203.12 6.09739 203.267 6.09739 203.413 6.09739C203.559 6.09739 203.705 6.17046 203.851 6.24352C203.997 6.24352 204.143 6.38965 204.289 6.60884Z" fill="black"/>
<path d="M33.9754 91.9486H3.50737C2.55752 91.9486 1.89995 91.7294 1.46156 91.3641C1.02317 90.9257 0.803955 90.2681 0.803955 89.3182V81.4272C0.803955 80.9158 0.877033 80.4774 1.02316 80.1121C1.16929 79.7467 1.38848 79.4545 1.60767 79.2353L9.13337 72.8786C9.35257 72.7325 9.57174 72.5864 9.93707 72.5133C10.3024 72.4403 10.5947 72.3672 11.033 72.3672H41.5011C42.451 72.3672 43.1085 72.5864 43.5469 72.9517C43.9853 73.3901 44.2045 74.0477 44.2045 74.9975V82.8155C44.2045 83.3269 44.1315 83.7653 43.9853 84.1306C43.8392 84.496 43.62 84.7882 43.4008 85.0074L35.8751 91.3641C35.6559 91.5102 35.3637 91.6563 35.0714 91.7294C34.7061 91.8755 34.3408 91.9486 33.9754 91.9486ZM11.033 85.0074H41.5011C42.2318 85.0074 42.7432 84.8613 43.1086 84.496C43.4739 84.1306 43.62 83.6192 43.62 82.8885V75.0706C43.62 74.3399 43.4739 73.8285 43.1086 73.4632C42.7432 73.0978 42.2318 72.9517 41.5011 72.9517H11.033C10.3024 72.9517 9.79095 73.0978 9.42563 73.4632C9.0603 73.8285 8.91417 74.3399 8.91417 75.0706V82.8885C8.91417 83.6192 9.0603 84.1306 9.42563 84.496C9.79095 84.8613 10.3024 85.0074 11.033 85.0074ZM38.3593 78.7238V79.3084H14.1748V78.7238H38.3593Z" fill="black"/>
<path d="M68.1695 106.927H59.1094C58.1596 106.927 57.502 106.708 57.0636 106.269C56.6252 105.831 56.406 105.173 56.406 104.224V66.449C56.406 65.9375 56.4791 65.4991 56.6252 65.1338C56.7713 64.7685 56.9905 64.4762 57.2097 64.257L64.7354 57.9004C64.9546 57.7542 65.1738 57.6081 65.5391 57.535C65.9044 57.462 66.1967 57.3889 66.6351 57.3889H92.6462C93.5961 57.3889 94.2536 57.6081 94.692 58.0465C95.1304 58.4849 95.3496 59.1425 95.3496 60.0923V67.0335C95.3496 67.5449 95.2765 67.9833 95.1304 68.3487C94.9843 68.714 94.7651 69.0062 94.5459 69.2254L88.0431 74.6322C88.9199 74.6322 89.5775 74.8514 90.0159 75.2898C90.4543 75.7282 90.6734 76.3858 90.6734 77.3356V84.3499C90.6734 84.8613 90.6004 85.2997 90.4543 85.665C90.3081 86.0304 90.0889 86.3226 89.8697 86.5418L82.271 92.8254C82.1248 92.9715 81.9057 93.1177 81.5403 93.2638C81.175 93.4099 80.8827 93.4099 80.4444 93.4099H78.3985V97.9399C78.3985 98.4514 78.3255 98.8898 78.1794 99.2551C78.0332 99.6204 77.814 99.9127 77.5948 100.132L69.9961 106.415C69.85 106.562 69.6308 106.708 69.2654 106.854C68.9001 106.927 68.5348 106.927 68.1695 106.927ZM75.6951 99.9858C76.4258 99.9858 76.9373 99.8396 77.3026 99.4743C77.6679 99.109 77.814 98.5975 77.814 97.8669V86.3957H87.9701C88.7007 86.3957 89.2121 86.2496 89.5775 85.8842C89.9428 85.5189 90.0889 85.0075 90.0889 84.2768V77.2626C90.0889 76.5319 89.9428 76.0205 89.5775 75.6551C89.2121 75.2898 88.7007 75.1437 87.9701 75.1437H77.814V69.0793H92.7193C93.4499 69.0793 93.9614 68.9332 94.3267 68.5679C94.692 68.2025 94.8382 67.6911 94.8382 66.9604V60.0193C94.8382 59.2886 94.692 58.7772 94.3267 58.4118C93.9614 58.0465 93.4499 57.9004 92.7193 57.9004H66.7082C65.9775 57.9004 65.4661 58.0465 65.1007 58.4118C64.7354 58.7772 64.5893 59.2886 64.5893 60.0193V97.9399C64.5893 98.6706 64.7354 99.182 65.1007 99.5474C65.4661 99.9127 65.9775 100.059 66.7082 100.059H75.6951V99.9858ZM70.9459 94.7251V63.2341H89.5775V63.8186H71.5305V80.4774H84.8283V81.135H71.5305V94.7981H70.9459V94.7251Z" fill="black"/>
<path d="M124.941 106.927H100.099C99.1491 106.927 98.4915 106.708 98.0531 106.269C97.6147 105.831 97.3955 105.173 97.3955 104.224V97.2824C97.3955 96.7709 97.4686 96.3325 97.6147 95.9672C97.7608 95.6019 97.98 95.3096 98.1992 95.0904L105.287 89.1722V76.2397H100.099C99.1491 76.2397 98.4915 76.0205 98.0531 75.5821C97.6147 75.1437 97.3955 74.4861 97.3955 73.5363V66.449C97.3955 65.9375 97.4686 65.4991 97.6147 65.1338C97.7608 64.7685 97.98 64.4762 98.1992 64.257L105.725 57.9004C105.944 57.7542 106.163 57.6081 106.529 57.535C106.894 57.462 107.186 57.3889 107.625 57.3889H132.467C133.417 57.3889 134.074 57.6081 134.512 58.0465C134.951 58.4849 135.17 59.1425 135.17 60.0923V67.1796C135.17 67.6911 135.097 68.1295 134.951 68.4948C134.805 68.8601 134.586 69.1524 134.366 69.3716L127.425 75.2168V88.3684H132.467C133.417 88.3684 134.074 88.5876 134.512 89.026C134.951 89.4644 135.17 90.122 135.17 91.0718V98.013C135.17 98.5245 135.097 98.9629 134.951 99.3282C134.805 99.6935 134.586 99.9858 134.366 100.205L126.768 106.489C126.621 106.635 126.402 106.781 126.037 106.927C125.672 106.927 125.379 106.927 124.941 106.927ZM107.625 99.9858H132.467C133.197 99.9858 133.709 99.8396 134.074 99.4743C134.439 99.109 134.586 98.5975 134.586 97.8669V90.9257C134.586 90.1951 134.439 89.6836 134.074 89.3183C133.709 88.953 133.197 88.8068 132.467 88.8068H126.841V69.2254H132.467C133.197 69.2254 133.709 69.0793 134.074 68.714C134.439 68.3487 134.586 67.8372 134.586 67.1066V60.0193C134.586 59.2886 134.439 58.7772 134.074 58.4118C133.709 58.0465 133.197 57.9004 132.467 57.9004H107.625C106.894 57.9004 106.382 58.0465 106.017 58.4118C105.652 58.7772 105.506 59.2886 105.506 60.0193V67.1066C105.506 67.8372 105.652 68.3487 106.017 68.714C106.382 69.0793 106.894 69.2254 107.625 69.2254H113.397V88.8068H107.625C106.894 88.8068 106.382 88.953 106.017 89.3183C105.652 89.6836 105.506 90.1951 105.506 90.9257V97.8669C105.506 98.5975 105.652 99.109 106.017 99.4743C106.382 99.8396 106.894 99.9858 107.625 99.9858ZM129.325 94.7251H110.766V94.1406H119.826V63.8186H110.766V63.2341H129.325V63.8186H120.411V94.1406H129.325V94.7251Z" fill="black"/>
<path d="M160.305 100.059L152.706 106.342C152.56 106.489 152.34 106.635 151.975 106.781C151.61 106.927 151.318 106.927 150.879 106.927H142.111C141.162 106.927 140.504 106.708 140.066 106.269C139.627 105.831 139.408 105.173 139.408 104.224V66.449C139.408 65.9375 139.481 65.4991 139.627 65.1338C139.773 64.7685 139.992 64.4762 140.212 64.257L147.737 57.9004C147.957 57.7542 148.176 57.6081 148.541 57.535C148.906 57.462 149.199 57.3889 149.637 57.3889H155.701C156.578 57.3889 157.309 57.535 157.893 57.8273C158.478 58.1196 159.062 58.558 159.647 59.1425L163.666 63.8186L170.753 57.9004C170.972 57.7542 171.191 57.6081 171.557 57.535C171.922 57.462 172.214 57.3889 172.652 57.3889H181.42C182.37 57.3889 183.028 57.6081 183.466 58.0465C183.904 58.4849 184.124 59.1425 184.124 60.0923V97.9399C184.124 98.4514 184.051 98.8898 183.905 99.2551C183.758 99.6204 183.539 99.9127 183.32 100.132L175.721 106.415C175.575 106.562 175.356 106.708 174.991 106.854C174.625 107 174.333 107 173.895 107H165.127C164.177 107 163.519 106.781 163.081 106.342C162.643 105.904 162.423 105.246 162.423 104.297V97.3554L161.108 95.748V97.9399C161.108 98.4514 161.035 98.8898 160.889 99.2551C160.816 99.5474 160.597 99.8396 160.305 100.059ZM158.478 99.9858C159.209 99.9858 159.72 99.8396 160.085 99.4743C160.451 99.109 160.597 98.5975 160.597 97.8669V78.6508L170.607 90.7065V97.8669C170.607 98.5975 170.753 99.109 171.118 99.4743C171.483 99.8396 171.995 99.9858 172.726 99.9858H181.493C182.224 99.9858 182.735 99.8396 183.101 99.4743C183.466 99.109 183.612 98.5975 183.612 97.8669V60.0923C183.612 59.3617 183.466 58.8502 183.101 58.4849C182.735 58.1196 182.224 57.9734 181.493 57.9734H172.726C171.995 57.9734 171.483 58.1196 171.118 58.4849C170.753 58.8502 170.607 59.3617 170.607 60.0923V72.5134L159.282 59.5809C158.77 58.9963 158.259 58.558 157.747 58.3388C157.236 58.1196 156.578 57.9734 155.848 57.9734H149.783C149.053 57.9734 148.541 58.1196 148.176 58.4849C147.81 58.8502 147.664 59.3617 147.664 60.0923V97.9399C147.664 98.6706 147.81 99.182 148.176 99.5474C148.541 99.9127 149.053 100.059 149.783 100.059H158.478V99.9858ZM155.336 63.7456L176.817 87.9301V63.2341H177.402V94.7251H176.817V88.7338L154.752 64.0378C154.679 63.9648 154.679 63.9648 154.605 63.8917C154.532 63.8186 154.532 63.8186 154.459 63.8186C154.386 63.8186 154.386 63.8186 154.386 63.8917C154.386 63.9648 154.386 63.9648 154.386 64.0378V94.7982H153.802V63.8917C153.802 63.6725 153.875 63.4533 154.021 63.3802C154.167 63.2341 154.313 63.2341 154.459 63.2341C154.605 63.2341 154.752 63.3072 154.898 63.3802C154.971 63.3802 155.117 63.5264 155.336 63.7456Z" fill="black"/>
<path d="M222.848 103.858C221.606 104.881 220.072 105.612 218.245 106.196C216.345 106.708 214.153 107 211.669 107H192.015C191.065 107 190.407 106.781 189.969 106.342C189.53 105.904 189.311 105.246 189.311 104.297V66.449C189.311 65.9375 189.384 65.4991 189.53 65.1338C189.677 64.7685 189.896 64.4762 190.115 64.257L197.641 57.9004C197.86 57.7542 198.079 57.6081 198.444 57.535C198.81 57.462 199.102 57.3889 199.54 57.3889H219.195C224.309 57.3889 228.036 58.4118 230.52 60.4576C232.931 62.5035 234.173 65.6453 234.173 69.883V88.0762C234.173 90.1951 233.881 92.0217 233.223 93.556C232.566 95.1635 231.689 96.4786 230.447 97.5016L222.848 103.858ZM219.122 99.9858C224.017 99.9858 227.597 99.0359 229.935 97.0632C232.273 95.0904 233.443 92.0948 233.443 88.0762V69.883C233.443 65.8644 232.273 62.8688 229.935 60.896C227.597 58.9233 223.944 57.9734 219.122 57.9734H199.467C198.737 57.9734 198.225 58.1196 197.86 58.4849C197.495 58.8502 197.348 59.3617 197.348 60.0923V97.9399C197.348 98.6706 197.495 99.182 197.86 99.5474C198.225 99.9127 198.737 100.059 199.467 100.059H219.122V99.9858ZM203.705 94.7251V63.2341H217.807C219.779 63.2341 221.387 63.4533 222.629 63.8917C223.871 64.3301 224.821 64.9146 225.478 65.6453C226.136 66.3759 226.574 67.2527 226.794 68.2025C227.013 69.2254 227.159 70.2483 227.159 71.4174V86.9071C227.159 88.0031 227.086 89.0991 226.867 90.0489C226.647 90.9988 226.209 91.8756 225.552 92.5331C224.894 93.2638 223.944 93.7752 222.702 94.2136C221.46 94.652 219.852 94.7982 217.88 94.7982H203.705V94.7251ZM217.88 63.8186H204.363V94.1406H217.88C219.779 94.1406 221.241 93.9214 222.41 93.556C223.579 93.1907 224.456 92.6793 225.04 92.0217C225.698 91.3641 226.063 90.6334 226.282 89.6836C226.501 88.7338 226.574 87.7839 226.574 86.761V71.3443C226.574 70.3214 226.428 69.2985 226.209 68.3487C225.99 67.3988 225.551 66.5951 224.894 65.9375C224.236 65.2799 223.36 64.7685 222.264 64.3301C221.168 64.0378 219.706 63.8186 217.88 63.8186ZM210.646 69.1524H217.587C218.537 69.1524 219.195 69.3716 219.633 69.81C220.072 70.2483 220.291 70.979 220.291 71.9288V86.1034C220.291 87.0533 220.072 87.7839 219.633 88.2954C219.195 88.7338 218.464 89.026 217.587 89.026H210.646V69.1524ZM212.181 78.2855C212.181 77.774 212.108 77.3356 211.961 76.9703C211.815 76.605 211.523 76.3858 211.231 76.2397V88.3684H212.254V78.2855H212.181Z" fill="black"/>
</svg>
